<svg id="Capa_1" data-name="Capa 1" xmlns="http://www.w3.org/2000/svg" viewBox="0 0 503.52 454.46"><defs><style>.cls-1,.cls-2{fill:none;stroke:#5c9e97;stroke-linejoin:round;stroke-width:5px;}.cls-2{stroke-linecap:round;}</style></defs><g id="Inf_basica" data-name="Inf basica"><g id="Grupo_19-2" data-name="Grupo 19-2"><path id="Trazado_46-2" data-name="Trazado 46-2" class="cls-1" d="M257.86,176.18c-57,5.62-46.3,66.74-46.3,66.74C223,303.58,257.86,300,257.86,300s34.85,3.59,46.3-57.07C304.16,242.92,314.82,181.8,257.86,176.18Z"/><path id="Trazado_47-2" data-name="Trazado 47-2" class="cls-1" d="M295.68,293.76c-4.4,22.92-37.82,21.58-37.82,21.58s-33.42,1.34-37.81-21.58c0,0-43.44,3.54-54.5,48.7H350.18C339.12,297.3,295.68,293.76,295.68,293.76Z"/></g><path id="Trazado_37-2" data-name="Trazado 37-2" class="cls-2" d="M429.05,139.22H234.39L183.52,93.76H87.07s-28.82-2.21-28.82,28.83V373.66a29.4,29.4,0,0,0,29.4,29.4h341.4a29.4,29.4,0,0,0,29.41-29.38v-205a29.41,29.41,0,0,0-29.41-29.41Z"/></g></svg>