<svg id="Capa_1" data-name="Capa 1" xmlns="http://www.w3.org/2000/svg" viewBox="0 0 496.73 441.25"><defs><style>.cls-1{fill:none;stroke:#5c9e97;stroke-linecap:round;stroke-linejoin:round;stroke-width:5px;}</style></defs><g id="Indicador_Inf_ginecologica" data-name="Indicador Inf ginecologica"><g id="Grupo_18" data-name="Grupo 18"><path id="Trazado_44" data-name="Trazado 44" class="cls-1" d="M270.63,286.07c-3.67,18.15-31.58,17.08-31.58,17.08s-27.9,1.06-31.57-17.08A52.86,52.86,0,0,0,162,324.63H316.13A52.85,52.85,0,0,0,270.63,286.07Z"/><path id="Trazado_45" data-name="Trazado 45" class="cls-1" d="M289.54,241.63c6.29-30,7.19-49.49-1.8-55.67a22.43,22.43,0,0,0-18.89-2.65s-3.6-22.09-36-22.09S183.42,193.91,185.22,216s11.69,45.07-10.34,56.12a157.1,157.1,0,0,0,127.69-3.54S283.24,271.67,289.54,241.63Zm-20.73,14.14c-5.37,19.43-34.17,27.38-46.76,15.9s-22.47-44.18,5.38-49.48,31.46-23,31.46-23c13.56-.88,15.36,37.12,10,56.56Z"/></g><path id="Trazado_127" data-name="Trazado 127" class="cls-1" d="M405.82,126.08H215.65L166,81.68H71.74a25.93,25.93,0,0,0-28.16,23.48,25.55,25.55,0,0,0,0,4.71V355.14a28.73,28.73,0,0,0,28.72,28.73H405.82a28.73,28.73,0,0,0,28.73-28.72h0V154.84a28.74,28.74,0,0,0-28.71-28.76Z"/></g></svg>