<svg id="Capa_1" data-name="Capa 1" xmlns="http://www.w3.org/2000/svg" viewBox="0 0 332.38 412.18"><defs><style>.cls-1{fill:none;stroke:#5c9e97;stroke-linecap:round;stroke-linejoin:round;stroke-width:5px;}</style></defs><g id="Contacto_medico" data-name="Contacto medico"><circle id="Elipse_4" data-name="Elipse 4" class="cls-1" cx="159.74" cy="99.73" r="13.43"/><g id="Grupo_10" data-name="Grupo 10"><path id="Trazado_21" data-name="Trazado 21" class="cls-1" d="M159.74,72.87A26.85,26.85,0,0,1,186.1,94.59c6.84.7,22.23,3.6,42.24,15.28-8.41-22.47-27.42-44.23-69-48.18-41.83,4-60.83,25.92-69.17,48.52,20.7-12.22,36.58-15,43.27-15.67A26.85,26.85,0,0,1,159.74,72.87Z"/><path id="Trazado_22" data-name="Trazado 22" class="cls-1" d="M85.25,164.31c18.31,93.28,74.05,87.76,74.05,87.76s55.74,5.52,74-87.76A119.28,119.28,0,0,0,233.1,128c-3.8-1.83-29.62-14-49.53-15.92a26.84,26.84,0,0,1-47.66,0c-21.5,1.9-50.22,16.08-50.46,16.2A119.24,119.24,0,0,0,85.25,164.31Z"/><path id="Trazado_23" data-name="Trazado 23" class="cls-1" d="M306.34,318c-9.55-37.66-34.26-56.47-54.89-65.83v18.72c15,4.71,15.06,18.57,15.06,18.57v24.18h-14.1V293.46s0-10.07-12.08-10.07-11.08,11.08-11.08,11.08v20.14h-14.1l-1-21.15s.06-17.26,15.94-22.59l-.93-26.18a80.29,80.29,0,0,0-9.61-1.61c-7,35.24-60.24,33.17-60.24,33.17s-53.24,2.07-60.23-33.17A80.94,80.94,0,0,0,88,245l-1,27.29a22.65,22.65,0,0,1-11.26,42.31h0A22.66,22.66,0,0,1,53.14,292h0a22.64,22.64,0,0,1,12.59-20.28V252.78C45.41,262.35,21.59,281.17,12.26,318L12,371.69H307.47Zm-128.13,8.39H166.46v11.76H153V326.36H141.27V312.93H153V301.18h13.42v11.75h11.76Z"/><circle id="Elipse_5" data-name="Elipse 5" class="cls-1" cx="75.81" cy="291.95" r="8.39"/></g></g></svg>