<svg id="Capa_1" data-name="Capa 1" xmlns="http://www.w3.org/2000/svg" viewBox="0 0 382.53 412.18"><defs><style>.cls-1,.cls-2{fill:none;stroke:#5c9e97;stroke-linecap:round;stroke-width:5px;}.cls-1{stroke-miterlimit:10;}.cls-2{stroke-linejoin:round;}</style></defs><g id="Tratamiento"><line id="Línea_1" data-name="Línea 1" class="cls-1" x1="350.76" y1="61.89" x2="277.8" y2="129.23"/><path id="Trazado_28" data-name="Trazado 28" class="cls-2" d="M261,162.91l24.32-26.19-15-16.84L242.25,144.2Z"/><path id="Trazado_29" data-name="Trazado 29" class="cls-2" d="M260,193.77l-46.77-50.51s19.13-8.93,38.1,10S260,193.77,260,193.77Z"/><line id="Línea_2" data-name="Línea 2" class="cls-1" x1="129.07" y1="343.43" x2="54.24" y2="262.99"/><path id="Trazado_30" data-name="Trazado 30" class="cls-2" d="M114.11,326.6,260,193.77l-46.77-50.51L68.8,278.64Z"/><line id="Línea_3" data-name="Línea 3" class="cls-1" x1="114.11" y1="277.96" x2="138.43" y2="302.28"/><line id="Línea_4" data-name="Línea 4" class="cls-1" x1="136.55" y1="257.38" x2="160.87" y2="281.7"/><line id="Línea_5" data-name="Línea 5" class="cls-1" x1="160.87" y1="236.8" x2="185.19" y2="261.12"/><line id="Línea_6" data-name="Línea 6" class="cls-1" x1="183.32" y1="214.35" x2="207.64" y2="238.67"/><line id="Línea_7" data-name="Línea 7" class="cls-1" x1="205.77" y1="193.77" x2="230.09" y2="218.09"/><line id="Línea_8" data-name="Línea 8" class="cls-1" x1="20.57" y1="315.37" x2="72.95" y2="371.49"/><path id="Trazado_31" data-name="Trazado 31" class="cls-2" d="M59.85,356.53l43.88-40.33-25.17-27L35.65,331.54Z"/><line id="Línea_9" data-name="Línea 9" class="cls-1" x1="48.63" y1="343.43" x2="89.79" y2="304.15"/></g></svg>