<svg id="Capa_1" data-name="Capa 1" xmlns="http://www.w3.org/2000/svg" viewBox="0 0 306.5 422.75"><defs><style>.cls-1{fill:none;stroke:#5c9e97;stroke-linecap:round;stroke-linejoin:round;stroke-width:5px;}</style></defs><g id="Seguro_medico" data-name="Seguro medico"><path id="Trazado_17" data-name="Trazado 17" class="cls-1" d="M207.82,89.73H197.35s-14.19-1.91-19.93-12.11-10.2-15.93-16.57-15.93H147.64c-6.37,0-10.83,5.74-16.56,15.93s-19.93,12.11-19.93,12.11h-10.3a4.2,4.2,0,0,0-4.18,4.18v21a4.2,4.2,0,0,0,4.18,4.18h107a4.18,4.18,0,0,0,4.18-4.18v-21A4.18,4.18,0,0,0,207.82,89.73Z"/><g id="Grupo_8" data-name="Grupo 8"><path id="Trazado_18" data-name="Trazado 18" class="cls-1" d="M230.78,93.87h-8.7a2.78,2.78,0,0,1,.11.75v19.32h7A29,29,0,0,1,258,142.81V322.75a29,29,0,0,1-28.87,28.87H79.81A28.94,28.94,0,0,1,51,322.75V142.81a29,29,0,0,1,28.86-28.87h6.66V94.62a2.78,2.78,0,0,1,.11-.75H78.2a46.5,46.5,0,0,0-46.37,46.36V325.32A46.5,46.5,0,0,0,78.2,371.69H230.78a46.5,46.5,0,0,0,46.37-46.37V140.23A46.5,46.5,0,0,0,230.78,93.87Z"/></g><path id="Trazado_19" data-name="Trazado 19" class="cls-1" d="M155,161.73,90,183.4c0,73.27,65,114.06,65,114.06s65-40.79,65-114.06Z"/><path id="Trazado_20" data-name="Trazado 20" class="cls-1" d="M184.28,220h-21V199H146.69v21h-21V236.6h21v21h16.56v-21h21Z"/></g></svg>