<svg id="Capa_1" data-name="Capa 1" xmlns="http://www.w3.org/2000/svg" viewBox="0 0 307 412.18"><defs><style>.cls-1{fill:none;stroke:#5c9e97;stroke-linecap:round;stroke-linejoin:round;stroke-width:5px;}</style></defs><g id="Contactos_de_emergencia" data-name="Contactos de emergencia"><path id="Trazado_24" data-name="Trazado 24" class="cls-1" d="M31.68,153.56h24.1a11.81,11.81,0,0,0,11.81-11.81h0a11.81,11.81,0,0,0-11.81-11.81H31.68a11.81,11.81,0,0,0-11.81,11.81h0A11.82,11.82,0,0,0,31.68,153.56Z"/><path id="Trazado_25" data-name="Trazado 25" class="cls-1" d="M238.86,61.69H71.78A37.18,37.18,0,0,0,34.6,98.87h0v21.25H56.28a21,21,0,0,1,0,42H34.61v34.77H56.28a21,21,0,0,1,0,42H34.61v33.8H56.28a21,21,0,0,1,0,42H34.61v19.8a37.17,37.17,0,0,0,37.15,37.19h167.1A37.17,37.17,0,0,0,276,334.52V98.87a37.18,37.18,0,0,0-37.17-37.18Zm-76.05,82.65c45.08,4.27,36.65,50.78,36.65,50.78-9.07,46.17-36.65,43.44-36.65,43.44s-27.59,2.73-36.65-43.44C126.15,195.12,117.72,148.61,162.81,144.34Zm0,126.83H90c8.72-34.37,43-37.06,43-37.06,3.46,17.44,29.81,16.41,29.81,16.41s26.34,1,29.81-16.41c0,0,34.24,2.69,43,37.06Z"/><path id="Trazado_26" data-name="Trazado 26" class="cls-1" d="M31.68,228.76h24.1A11.81,11.81,0,0,0,67.59,217h0a11.81,11.81,0,0,0-11.81-11.81H31.68A11.82,11.82,0,0,0,19.87,217h0A11.8,11.8,0,0,0,31.68,228.76Z"/><path id="Trazado_27" data-name="Trazado 27" class="cls-1" d="M67.59,294h0a11.81,11.81,0,0,0-11.81-11.81H31.68A11.81,11.81,0,0,0,19.87,294h0a11.81,11.81,0,0,0,11.81,11.81h24.1A11.81,11.81,0,0,0,67.59,294Z"/></g></svg>