<svg id="Capa_1" data-name="Capa 1" xmlns="http://www.w3.org/2000/svg" viewBox="0 0 717.38 717.38"><defs><style>.cls-1{fill:none;stroke:#199e97;stroke-linejoin:round;stroke-width:12.39px;}</style></defs><g id="Grupo_19" data-name="Grupo 19"><path id="Trazado_46" data-name="Trazado 46" class="cls-1" d="M358.68,99.2C148.74,119.71,188,342.84,188,342.84,230.23,564.32,358.68,551.2,358.68,551.2s128.46,13.12,170.66-208.36C529.35,342.83,568.63,119.71,358.68,99.2Z"/><path id="Trazado_47" data-name="Trazado 47" class="cls-1" d="M497.5,529.87c-16.12,83.67-138.81,78.75-138.81,78.75S236,613.55,219.88,529.87c0,0-159.45,12.92-200.06,177.8H697.55C657,542.79,497.5,529.87,497.5,529.87Z"/></g><path class="cls-1" d="M185.46,287.13S365.82,308,391.23,209.9c0,0,15.88,79.09,140.76,79.09"/><path class="cls-1" d="M271.87,125.1a90.61,90.61,0,1,1,173.7,0"/><circle class="cls-1" cx="298.48" cy="363.34" r="33.73"/><circle class="cls-1" cx="415.61" cy="363.34" r="33.73"/><line class="cls-1" x1="332.21" y1="363.34" x2="381.88" y2="363.34"/></svg>