<svg id="Capa_1" data-name="Capa 1" xmlns="http://www.w3.org/2000/svg" viewBox="0 0 717.38 717.38"><defs><style>.allergy-1,.allergy-2{fill:none;stroke:#FFFFFF;stroke-width:8.71px;}.allergy-1{stroke-linejoin:round;}.allergy-2{stroke-miterlimit:10;}</style></defs><g id="Boton_Hombre" data-name="Boton Hombre"><g id="Grupo_19" data-name="Grupo 19"><path id="Trazado_46" data-name="Trazado 46" class="allergy-1" d="M358.69,53.11C147.81,73.7,187.27,297.83,187.27,297.83c42.4,222.47,171.42,209.29,171.42,209.29s129,13.18,171.42-209.29C530.12,297.82,569.58,73.7,358.69,53.11Z"/><path id="Trazado_47" data-name="Trazado 47" class="allergy-1" d="M498.13,485.69C481.94,569.74,358.7,564.8,358.7,564.8s-123.24,4.94-139.43-79.11c0,0-160.16,13-201,178.6H699.07C658.28,498.67,498.13,485.69,498.13,485.69Z"/></g></g><circle class="allergy-2" cx="335.71" cy="186.88" r="0.85"/><circle class="allergy-2" cx="316.11" cy="228.08" r="0.85"/><circle class="allergy-2" cx="348.1" cy="224.23" r="0.85"/><circle class="allergy-2" cx="296.64" cy="196.94" r="0.85"/><circle class="allergy-2" cx="246.82" cy="358.7" r="0.85"/><circle class="allergy-2" cx="302.7" cy="330.77" r="0.85"/><circle class="allergy-2" cx="218.67" cy="272.57" r="0.85"/><circle class="allergy-2" cx="353.73" cy="243.12" r="0.85"/><circle class="allergy-2" cx="257.42" cy="170.61" r="0.85"/><circle class="allergy-2" cx="223.07" cy="176.02" r="0.85"/><circle class="allergy-2" cx="268.93" cy="287.25" r="0.85"/><circle class="allergy-2" cx="227.4" cy="205.14" r="0.85"/><circle class="allergy-2" cx="208.73" cy="243.12" r="0.85"/><circle class="allergy-2" cx="242.4" cy="227.68" r="0.85"/><circle class="allergy-2" cx="318.14" cy="257.89" r="0.85"/><circle class="allergy-2" cx="273.15" cy="224.23" r="0.85"/><circle class="allergy-2" cx="247.1" cy="255.38" r="0.85"/><circle class="allergy-2" cx="289.41" cy="406.15" r="0.85"/><circle class="allergy-2" cx="316.3" cy="378.03" r="0.85"/><circle class="allergy-2" cx="271.42" cy="436.58" r="0.85"/><circle class="allergy-2" cx="358.7" cy="275.53" r="0.85"/><circle class="allergy-2" cx="302.82" cy="303.46" r="0.85"/><circle class="allergy-2" cx="341.05" cy="295.37" r="0.85"/><circle class="allergy-2" cx="274.85" cy="330.77" r="0.85"/><circle class="allergy-2" cx="251.79" cy="391.11" r="0.85"/><circle class="allergy-2" cx="240.18" cy="314.85" r="0.85"/><circle class="allergy-2" cx="221.28" cy="320.47" r="0.85"/><circle class="allergy-2" cx="336.59" cy="346.98" r="0.85"/><circle class="allergy-2" cx="287.38" cy="376.34" r="0.85"/><circle class="allergy-2" cx="367.38" cy="486.54" r="0.85"/><circle class="allergy-2" cx="313.86" cy="470.62" r="0.85"/><circle class="allergy-2" cx="360.96" cy="440.69" r="0.85"/><circle class="allergy-2" cx="386.39" cy="415.94" r="0.85"/><circle class="allergy-2" cx="312.16" cy="432.54" r="0.85"/><circle class="allergy-2" cx="332.37" cy="410.01" r="0.85"/><circle class="allergy-2" cx="302.7" cy="167.63" r="0.85"/><circle class="allergy-2" cx="306.66" cy="135.73" r="0.85"/><circle class="allergy-2" cx="279.04" cy="96.38" r="0.85"/><circle class="allergy-2" cx="349.61" cy="155.58" r="0.85"/><circle class="allergy-2" cx="329.9" cy="104.36" r="0.85"/><circle class="allergy-2" cx="343.35" cy="73.79" r="0.85"/><circle class="allergy-2" cx="246.94" cy="132.6" r="0.85"/><circle class="allergy-2" cx="362.29" cy="193.56" r="0.85"/><circle class="allergy-2" cx="389.74" cy="230" r="0.85"/><circle class="allergy-2" cx="402.59" cy="195.6" r="0.85"/><circle class="allergy-2" cx="494.11" cy="254.12" r="0.85"/><circle class="allergy-2" cx="435.75" cy="161.96" r="0.85"/><circle class="allergy-2" cx="470.5" cy="160.39" r="0.85"/><circle class="allergy-2" cx="447.79" cy="278.55" r="0.85"/><circle class="allergy-2" cx="472.07" cy="189.79" r="0.85"/><circle class="allergy-2" cx="497.96" cy="223.28" r="0.85"/><circle class="allergy-2" cx="461.89" cy="214.88" r="0.85"/><circle class="allergy-2" cx="393.71" cy="259.63" r="0.85"/><circle class="allergy-2" cx="424.97" cy="254.97" r="0.85"/><circle class="allergy-2" cx="405.69" cy="290.65" r="0.85"/><circle class="allergy-2" cx="373.17" cy="305.16" r="0.85"/><circle class="allergy-2" cx="431.06" cy="217.64" r="0.85"/><circle class="allergy-2" cx="462.82" cy="242.96" r="0.85"/><circle class="allergy-2" cx="390.8" cy="168.1" r="0.85"/><circle class="allergy-2" cx="380.53" cy="137.63" r="0.85"/><circle class="allergy-2" cx="368.82" cy="100.41" r="0.85"/><circle class="allergy-2" cx="383.21" cy="72.94" r="0.85"/><circle class="allergy-2" cx="434" cy="93.23" r="0.85"/><circle class="allergy-2" cx="399.73" cy="93.55" r="0.85"/><circle class="allergy-2" cx="438.42" cy="122.62" r="0.85"/><circle class="allergy-2" cx="380.72" cy="330.44" r="0.85"/><circle class="allergy-2" cx="374.35" cy="375.62" r="0.85"/><circle class="allergy-2" cx="407.76" cy="360.38" r="0.85"/><circle class="allergy-2" cx="431.1" cy="466.47" r="0.85"/><circle class="allergy-2" cx="455" cy="360.04" r="0.85"/><circle class="allergy-2" cx="480.67" cy="383.5" r="0.85"/><circle class="allergy-2" cx="381.07" cy="451" r="0.85"/><circle class="allergy-2" cx="400.2" cy="476.12" r="0.85"/><circle class="allergy-2" cx="461" cy="405.41" r="0.85"/><circle class="allergy-2" cx="455.63" cy="447.39" r="0.85"/><circle class="allergy-2" cx="436.06" cy="415.94" r="0.85"/><circle class="allergy-2" cx="356.21" cy="399.37" r="0.85"/><circle class="allergy-2" cx="412.31" cy="396.1" r="0.85"/><circle class="allergy-2" cx="416.86" cy="436.46" r="0.85"/><circle class="allergy-2" cx="418.87" cy="332.59" r="0.85"/><circle class="allergy-2" cx="433.16" cy="303.79" r="0.85"/><circle class="allergy-2" cx="511.55" cy="320.26" r="0.85"/><circle class="allergy-2" cx="461.12" cy="323.81" r="0.85"/><circle class="allergy-2" cx="477.9" cy="286.2" r="0.85"/><circle class="allergy-2" cx="484.7" cy="334.12" r="0.85"/></svg>