<svg id="Capa_1" data-name="Capa 1" xmlns="http://www.w3.org/2000/svg" viewBox="0 0 201.03 201.03"><defs><style>.cls-1,.cls-2{fill:none;stroke:#5c9e97;stroke-linecap:round;stroke-width:3.52px;}.cls-1{stroke-miterlimit:10;}.cls-2{stroke-linejoin:round;}</style></defs><g id="Altura"><g id="Grupo_49" data-name="Grupo 49"><line id="Línea_11" data-name="Línea 11" class="cls-1" x1="50.63" y1="38.61" x2="50.63" y2="161.7"/><path id="Trazado_112" data-name="Trazado 112" class="cls-2" d="M51.12,14.5,34.82,38.61H66.45Z"/><path id="Trazado_113" data-name="Trazado 113" class="cls-2" d="M50.14,185.65l16.3-24.1H34.82Z"/><line id="Línea_12" data-name="Línea 12" class="cls-1" x1="27.65" y1="1.8" x2="73.62" y2="1.8"/><line id="Línea_13" data-name="Línea 13" class="cls-1" x1="27.65" y1="198.18" x2="73.62" y2="198.18"/></g><ellipse id="Elipse_17" data-name="Elipse 17" class="cls-2" cx="136.22" cy="17.55" rx="15.98" ry="15.75"/><path id="Trazado_114" data-name="Trazado 114" class="cls-2" d="M136.22,47.44h-16s-23.31,0-23.31,23v33.27s-.65,10.21,10.35,10.21c0,0,8.56-.56,8.56-8.44v82.76s-.49,10.93,9.62,10.93c0,0,10.6,0,10.6-10.45v.16s-.33,10.37,10.51,10.37c0,0,9.86.24,9.86-9.73V105s-1,9.15,9.29,9.15c0,0,7.66.16,7.66-7.55V64.48s.65-17-17.93-17Z"/></g><line class="cls-2" x1="136.06" y1="188.86" x2="136.06" y2="125.69"/><line class="cls-2" x1="115.88" y1="106.42" x2="115.88" y2="71.93"/><line class="cls-2" x1="156.41" y1="106.42" x2="156.41" y2="71.93"/></svg>