<svg id="Capa_1" data-name="Capa 1" xmlns="http://www.w3.org/2000/svg" viewBox="0 0 273.32 271.12"><defs><style>.cls-1,.cls-2{fill:none;stroke:#19a054;stroke-width:5px;}.cls-1{stroke-miterlimit:10;}.cls-2{stroke-linecap:round;stroke-linejoin:round;}</style></defs><path class="cls-1" d="M248.79,79.32H110.19L76.89,55.15h-52S6,54,6,70.47V204c0,8.64,8.62,15.64,19.26,15.64H248.79c10.63,0,19.25-7,19.25-15.64h0V95C268,86.32,259.42,79.32,248.79,79.32Z"/><path class="cls-2" d="M106.52,98.54h16.16s5.93,24.9,20.65,24.9c0,0,6.12-10.42,17.69-10.42s20.9,9.84,24.29,20.74,5.07,37.1-18.84,50.1a53.31,53.31,0,0,1-23.9,5.84c-13.58,0-17.88-7.08-18.64-7.65s-6.41-5.17-11.77-.67-10.23,14.86-10.23,14.86H86.83s4.59-15.15,13.48-25.19a23.07,23.07,0,0,1,24.57-6.69c3.54,1.43,8.42,2,11.47-.1s8.51-5.92,7.56-13.48-4.11-10.9-7.84-12.43-16.06-7.17-21.9-19.69S106.52,98.54,106.52,98.54Z"/></svg>