<svg id="Capa_1" data-name="Capa 1" xmlns="http://www.w3.org/2000/svg" viewBox="0 0 273.32 271.12"><defs><style>.cls-1{fill:none;stroke:#81452c;stroke-linecap:round;stroke-linejoin:round;stroke-width:5px;}</style></defs><path class="cls-1" d="M248,80.84H110.38l-33.06-24H25.72S7,55.67,7,72.06V204.6c0,8.58,8.56,15.53,19.11,15.53H248c10.56,0,19.11-6.95,19.11-15.52h0V96.36C267.1,87.79,258.54,80.84,248,80.84Z"/><path class="cls-1" d="M144.49,158.78s11.24,20.27-8.25,22.11-9.59-34.89-5.44-47.22,10.39-23.89,13.32-25S132,145.77,144.49,158.78Z"/><path class="cls-1" d="M184.64,159.23c0,24.3-21.65,44-48.35,44s-48.35-19.69-48.35-44h26.32s5.73-.16,5.73,3.67-5.19,26.19,16.3,26.19S152.8,168,151.06,164.62s.87-4.74,3.79-4.74S184.64,159.23,184.64,159.23Z"/><path class="cls-1" d="M93.23,179.26s5,4.14,9.61,3,7.73-6.47,12.76-4.7,5.69,3.4,5.69,3.4"/><path class="cls-1" d="M180.78,176.49a8.92,8.92,0,0,0-5.55-3.05c-3.35-.3-1,8.94-10.07,6.43s-4.82-6.43-12.35-5.45"/></svg>