<svg id="Capa_1" data-name="Capa 1" xmlns="http://www.w3.org/2000/svg" viewBox="0 0 273.32 271.12"><defs><style>.cls-1,.cls-2{fill:none;stroke:#32812c;stroke-width:5px;}.cls-1{stroke-miterlimit:10;}.cls-2{stroke-linecap:round;stroke-linejoin:round;}</style></defs><path class="cls-1" d="M248.06,77.5H109.45L76.16,53.33h-52S5.31,52.16,5.31,68.66V202.17c0,8.64,8.62,15.64,19.25,15.64H248.05c10.64,0,19.26-7,19.26-15.64h0v-109C267.31,84.51,258.69,77.51,248.06,77.5Z"/><path class="cls-2" d="M100.49,155.71S85.1,160.24,86,143.31c0,0-5.13-11,4.19-17.61,0,0,3.25-12.66,15.13-15.56a9.36,9.36,0,0,1,9.49-4.37s4.45-4.36,9.66-2.13a9.48,9.48,0,0,1,11-1s15.64-7,24,4.45c0,0,10.78.17,11.89,7.69,0,0,8.46.86,9.57,9.32,0,0,9.24,4.53,5.3,14,0,0,5.48,10.26-2.05,15.48,0,0-4.53,5.46-11.11,2.69,0,0-6.41,5.43-11.2,0,0,0-11.8,13.93-26.93,7.78,0,0-12.57,2.48-20.1-5.82A14.76,14.76,0,0,1,100.49,155.71Z"/><path class="cls-2" d="M152.12,163.38s-2.42,12.05,4,14,10.71,2,16.13-3.19,16.44-10.73,10.93-19.73"/><path class="cls-2" d="M127.87,164.22s.52,12.29,6,15.71,12.31,7.87,14,12.43,18.24.28,14-6.05-5.7-8.89-5.7-8.89"/><path class="cls-2" d="M141,129.54s-1.31,7.7,10.09,10"/><path class="cls-2" d="M134.88,142s7.36,1.09,8.92-5.73"/><path class="cls-2" d="M152.27,117.06s7.07-2.74,7.12-10"/><path class="cls-2" d="M135.37,102.61S141,120.54,130,123.27"/><path class="cls-2" d="M144.06,117.06s-3.75.46-7.26-3.65"/><path class="cls-2" d="M114.76,105.77s8.5,7.47.35,10.38"/><path class="cls-2" d="M126.33,115.24s-5.87,2.13-7.75-2.3"/><path class="cls-2" d="M90.14,125.7a10.53,10.53,0,0,0,9.46,4.87c6.5-.34,7.81-6.61,6.78-8.44"/><path class="cls-2" d="M119.61,132.74s-4-7.65-14.54-4.74"/><path class="cls-2" d="M86,143.31s2.37-7.15,9.66-1.85"/><path class="cls-2" d="M114.76,158.18s-2.5-3.73,3.31-7.09"/><path class="cls-2" d="M140,149s-6.49,4.39-5.15,15"/><path class="cls-2" d="M150.39,150.18s-3.46,7.34,2.46,12.84"/><path class="cls-2" d="M174.21,144.31A9.33,9.33,0,0,0,173,156.26"/><path class="cls-2" d="M173.42,136.3s1.14,3,12.73,1.79"/><path class="cls-2" d="M173.42,126.36s-3.14-2.12-2.14-11.61c-1.68,10.23-9.09,7-9.09,7"/></svg>