<svg id="Capa_1" data-name="Capa 1" xmlns="http://www.w3.org/2000/svg" viewBox="0 0 273.32 271.12"><defs><style>.cls-1{fill:none;stroke:#ff1695;stroke-miterlimit:10;stroke-width:5px;}</style></defs><path class="cls-1" d="M248.06,77.16H109.45L76.16,53h-52S5.31,51.82,5.31,68.32V201.83c0,8.64,8.62,15.64,19.25,15.64H248.05c10.64,0,19.26-7,19.26-15.64h0V92.8C267.31,84.17,258.69,77.17,248.06,77.16Z"/><path class="cls-1" d="M143.36,104.23V114h7.88l-8.65,8.65A24.46,24.46,0,1,0,124.11,167v7.84h-9.78v10h9.78v9.88h10V184.8H144v-9.92h-9.88v-7.81a24.47,24.47,0,0,0,15.51-37.39l8.65-8.65v7.85h9.68V104.23Zm-14.21,53.53a14.66,14.66,0,1,1,14.66-14.66A14.66,14.66,0,0,1,129.15,157.76Z"/></svg>