<svg id="Capa_1" data-name="Capa 1" xmlns="http://www.w3.org/2000/svg" xmlns:xlink="http://www.w3.org/1999/xlink" viewBox="0 0 717.38 717.38"><defs><style>.cls-1,.cls-2{fill:none;}.cls-2{stroke:#2c2e81;stroke-linecap:round;stroke-linejoin:round;stroke-width:4.99px;}.cls-3{isolation:isolate;}.cls-4{clip-path:url(#clip-path);}.cls-5{fill:#2c2e81;}</style><clipPath id="clip-path"><rect class="cls-1" x="3.52" y="273.44" width="710.84" height="306.02"/></clipPath></defs><g id="Medico_historial" data-name="Medico historial"><path id="Trazado_34-2" data-name="Trazado 34-2" class="cls-2" d="M687.35,278v-79.4a47.74,47.74,0,0,0-47.73-47.75h-316L241,77.1H84.45s-46.79-3.59-46.79,46.8V275.57M687.35,531.48"/></g><g class="cls-3"><g class="cls-4"><path class="cls-5" d="M231.42,457.37V395.51h77.29a3,3,0,0,0,1.75-.52,1.56,1.56,0,0,0,.74-1.25V343.59h95.48v50.15a1.55,1.55,0,0,0,.73,1.25,3.11,3.11,0,0,0,1.77.52h77.28v61.86H409.18a3.1,3.1,0,0,0-1.77.51,1.56,1.56,0,0,0-.73,1.25v50.16H311.2V459.13a1.58,1.58,0,0,0-.74-1.25,3,3,0,0,0-1.75-.51H231.42m177.76-117.3H308.71a3,3,0,0,0-1.76.51,1.58,1.58,0,0,0-.74,1.25V392H228.92a3.1,3.1,0,0,0-1.76.52,1.55,1.55,0,0,0-.74,1.24v65.39a1.56,1.56,0,0,0,.74,1.25,3.17,3.17,0,0,0,1.76.51h77.29v50.16a1.56,1.56,0,0,0,.74,1.25,3,3,0,0,0,1.76.51H409.18a3.11,3.11,0,0,0,1.76-.51,1.58,1.58,0,0,0,.73-1.25V460.89H489a3.15,3.15,0,0,0,1.76-.51,1.58,1.58,0,0,0,.73-1.25H489v0h2.49V393.74a1.57,1.57,0,0,0-.72-1.24A3.13,3.13,0,0,0,489,392H411.67V341.83a1.59,1.59,0,0,0-.73-1.25,3.11,3.11,0,0,0-1.76-.51"/><path class="cls-5" d="M57.21,277H660.66c13.46,0,25.63,3.85,34.45,10.09s14.24,14.81,14.26,24.3l-24.51,230v.13c0,9.52-5.45,18.12-14.27,24.35s-21,10.09-34.44,10.09H88.87c-13.46,0-25.63-3.85-34.45-10.09S40.16,551,40.16,541.48a1,1,0,0,0,0-.17L8.51,311.3c0-9.47,5.47-18,14.26-24.25S43.76,277,57.21,277m603.45-3.52H57.21c-29.65,0-53.69,17-53.69,38a.91.91,0,0,0,0,.17l31.64,230c.09,20.91,24.1,37.85,53.7,37.85H636.15c29.59,0,53.59-16.93,53.69-37.83h0l24.52-230.09v-.13c0-21-24-38-53.7-38"/></g></g><path class="cls-2" d="M67.14,273.56V220.65a33,33,0,0,1,33-33H623.52a33,33,0,0,1,33,33v53.12"/><line class="cls-2" x1="255.62" y1="273.77" x2="255.62" y2="212.53"/><line class="cls-2" x1="303.17" y1="273.77" x2="303.17" y2="212.53"/><line class="cls-2" x1="351.56" y1="273.77" x2="351.56" y2="212.53"/><line class="cls-2" x1="399.11" y1="273.77" x2="399.11" y2="212.53"/><line class="cls-2" x1="448.78" y1="273.77" x2="448.78" y2="212.53"/><line class="cls-2" x1="496.32" y1="273.77" x2="496.32" y2="212.53"/><line class="cls-2" x1="544.72" y1="273.77" x2="544.72" y2="212.53"/><line class="cls-2" x1="592.26" y1="273.77" x2="592.26" y2="212.53"/><path class="cls-2" d="M90.79,273.53a64.74,64.74,0,1,1,129.47,0"/></svg>