<svg id="Capa_1" data-name="Capa 1" xmlns="http://www.w3.org/2000/svg" viewBox="0 0 273.32 271.12"><defs><style>.cls-1{fill:none;stroke:#a01919;stroke-linecap:round;stroke-linejoin:round;stroke-width:5px;}</style></defs><path class="cls-1" d="M248.41,77.49H109.8L76.51,53.32h-52S5.66,52.15,5.66,68.65V202.16c0,8.64,8.62,15.64,19.25,15.64H248.4c10.64,0,19.26-7,19.26-15.64h0v-109C267.66,84.5,259,77.49,248.41,77.49Z"/><path class="cls-1" d="M172.87,148.28c-5.55-19.91-34.85-47.73-36.19-49v0l0,0,0,0v0c-1.33,1.26-30.63,29.07-36.18,49-5.67,20.29,13.58,44.34,36.21,43.59C159.28,192.62,178.54,168.57,172.87,148.28Z"/></svg>