<svg id="Capa_1" data-name="Capa 1" xmlns="http://www.w3.org/2000/svg" viewBox="0 0 273.32 271.12"><defs><style>.cls-1,.cls-2{fill:none;stroke:#86a019;stroke-width:5px;}.cls-1{stroke-miterlimit:10;}.cls-2{stroke-linecap:round;stroke-linejoin:round;}</style></defs><path class="cls-1" d="M248.41,77H109.8L76.51,52.83h-52S5.66,51.65,5.66,68.16V201.67c0,8.63,8.62,15.64,19.25,15.64H248.4c10.64,0,19.26-7,19.26-15.64h0v-109C267.66,84,259,77,248.41,77Z"/><path class="cls-2" d="M123.37,125.64S132.05,100,103,100,76.78,137.47,81.25,147.9s14.31,17.21,21.18,17.46,17.13-4.72,17.46-13-4.55-10.75-4.55-10.75"/><path class="cls-2" d="M112.2,130a26.07,26.07,0,0,1,18,13.41c6.54,11.91-6.78,29.13-3.06,58.67"/><path class="cls-2" d="M105.41,116.07s1.93,6.12,4,8.05,3.36,4.14,2.76,6.45,1.32,7.56-14.84,15.17"/><path class="cls-2" d="M94.93,137s7.6,1.6,9.23,5"/><path class="cls-2" d="M114.9,115.13s-2.54,2.32-2.7,4.69-3.66,3.23-3.66,3.23"/><path class="cls-2" d="M150,125.64S141.26,100,170.31,100s26.23,37.48,21.76,47.91-14.32,17.21-21.18,17.46-17.13-4.72-17.46-13S158,141.61,158,141.61"/><path class="cls-2" d="M161.12,130a26.06,26.06,0,0,0-18,13.41c-6.54,11.91,6.78,29.13,3.06,58.67"/><path class="cls-2" d="M167.91,116.07s-1.93,6.12-4,8.05-3.36,4.14-2.76,6.45-1.32,7.56,14.84,15.17"/><path class="cls-2" d="M178.39,137s-7.6,1.6-9.23,5"/><path class="cls-2" d="M158.42,115.13s2.54,2.32,2.7,4.69,3.66,3.23,3.66,3.23"/></svg>