<svg id="Capa_1" data-name="Capa 1" xmlns="http://www.w3.org/2000/svg" viewBox="0 0 273.32 271.12"><defs><style>.cls-1,.cls-2{fill:none;stroke:#2c6d81;stroke-width:5px;}.cls-1{stroke-miterlimit:10;}.cls-2{stroke-linecap:round;stroke-linejoin:round;}</style></defs><path class="cls-1" d="M248.06,78.69H109.45L76.16,54.52h-52S5.31,53.34,5.31,69.84V203.35C5.31,212,13.93,219,24.56,219H248.05c10.64,0,19.26-7,19.26-15.64h0v-109C267.31,85.69,258.69,78.69,248.06,78.69Z"/><polyline class="cls-2" points="136.24 107.8 136.24 133.57 117.71 152.1 117.71 166.1"/><line class="cls-2" x1="104.56" y1="158.21" x2="117.71" y2="152.1"/><polyline class="cls-2" points="136.24 107.8 136.24 133.57 154.77 152.1 154.77 166.1"/><line class="cls-2" x1="167.91" y1="158.21" x2="154.77" y2="152.1"/><path class="cls-2" d="M127,129v-9.88s1-6.37-6.37-6.37-18,4.87-26.45,23.55-12.89,58.09,7.19,58.09H121.2s5.92,0,5.92-5.91V156.55"/><path class="cls-2" d="M145.65,129v-9.88s-1-6.37,6.37-6.37,18,4.87,26.45,23.55,12.89,58.09-7.19,58.09H151.41s-5.91,0-5.91-5.91V156.55"/></svg>