<svg id="Capa_1" data-name="Capa 1" xmlns="http://www.w3.org/2000/svg" viewBox="0 0 273.32 271.12"><defs><style>.cls-1,.cls-2{fill:none;stroke:#772d11;stroke-width:5px;}.cls-1{stroke-miterlimit:10;}.cls-2{stroke-linecap:round;stroke-linejoin:round;}</style></defs><path class="cls-1" d="M248.41,77.25H109.8L76.51,53.08h-52S5.66,51.9,5.66,68.41v133.5c0,8.64,8.62,15.64,19.25,15.64H248.4c10.64,0,19.26-7,19.26-15.64h0v-109C267.66,84.25,259,77.25,248.41,77.25Z"/><path class="cls-2" d="M132.08,108.12,128.44,112a4.89,4.89,0,0,0,.39,7.1c3.7,3.7,7.88-.44,7.88-.44l7.31-7.31s4.33-4,0-8.31l-3.18-3.18a17.54,17.54,0,0,0-13-3.48c-8.1.86-13.85,4.06-20,12.07S85.64,137,82.35,157.76c0,0,0,12.37-1.65,16s1.82,17.74,37.4,24.15,62.14-2.68,64.65-4.33,9.44-5,10-13.07,0-30.21,0-30.21.78-11.51-10.65-14.19-25.91,5.32-30.91,17.76"/><path class="cls-2" d="M119.89,125s-5.2,4.5-2.89,12.46,6,29.09-8.08,32.89"/><path class="cls-2" d="M156.93,158.36s-10-9.66-21.81-8c-13.89,2-20.26,16.45-20.26,16.45"/><path class="cls-2" d="M116.64,131.1h14.87a6.18,6.18,0,0,0,4.39-1.56l9.81-9.87s3.29-3.81-1-6.75l-1.42-.92"/></svg>