<svg id="Capa_1" data-name="Capa 1" xmlns="http://www.w3.org/2000/svg" viewBox="0 0 273.32 271.12"><defs><style>.cls-1{fill:none;stroke:#2b19a0;stroke-miterlimit:10;stroke-width:5px;}</style></defs><path class="cls-1" d="M248.41,77.5H109.8L76.51,53.33h-52S5.66,52.16,5.66,68.66V202.17c0,8.64,8.62,15.64,19.25,15.64H248.4c10.64,0,19.26-7,19.26-15.64h0v-109C267.66,84.51,259,77.51,248.41,77.5Z"/><path class="cls-1" d="M200,131.67a18.93,18.93,0,0,0-37.86,0H111.22a18.93,18.93,0,1,0-33.11,12.54,18.93,18.93,0,1,0,33.11,12.54H162.1a18.93,18.93,0,1,0,33.11-12.54A18.89,18.89,0,0,0,200,131.67Z"/></svg>