<svg id="Capa_1" data-name="Capa 1" xmlns="http://www.w3.org/2000/svg" viewBox="0 0 273.32 271.12"><defs><style>.cls-1{fill:none;stroke:#a07319;stroke-miterlimit:10;stroke-width:5px;}</style></defs><path class="cls-1" d="M248.06,82H109.45L76.16,57.87h-52S5.31,56.69,5.31,73.2V206.71c0,8.63,8.62,15.64,19.25,15.64H248.05c10.64,0,19.26-7,19.26-15.64h0v-109C267.31,89.05,258.69,82,248.06,82Z"/><path class="cls-1" d="M146.77,175.72a6.11,6.11,0,0,0,1.75.82c1.63.39,8.74-1.63,14.75-18.88s-.58-23.81-3.57-23.55-1.24-3.14-5.17,8.16a20,20,0,0,1-7.76,9.7"/><path class="cls-1" d="M125.85,152a20,20,0,0,1-7.76-9.7c-3.93-11.3-2.19-7.9-5.17-8.16s-9.59,6.29-3.57,23.55,13.11,19.27,14.75,18.88a6.11,6.11,0,0,0,1.75-.82"/><path class="cls-1" d="M146.77,152V136.28c.44-8.21,17.16-6.1,15.09-15.49a18.46,18.46,0,0,0-9.21-12.67s-2-.76-5.44,1.7-10.74,3.47-10.74,3.47a1.55,1.55,0,0,1-.33,0s-7.26-1-10.73-3.47-5.44-1.7-5.44-1.7a18.49,18.49,0,0,0-9.22,12.67c-2.06,9.39,14.66,7.28,15.1,15.49V152a32.63,32.63,0,0,0,10.46,4.7A32.63,32.63,0,0,0,146.77,152Z"/><path class="cls-1" d="M141.85,170.25c-1.1-3-5.54-3.89-5.54-3.89s-4.45.86-5.54,3.89a10.86,10.86,0,0,1-4.92,5.47v7.63s-1.45,12.76,4.81,12.76H142c6.26,0,4.81-12.76,4.81-12.76v-7.63C144.94,174.58,142.64,172.45,141.85,170.25Z"/></svg>