<svg id="Capa_1" data-name="Capa 1" xmlns="http://www.w3.org/2000/svg" viewBox="0 0 273.32 271.12"><defs><style>.cls-1{fill:none;stroke:#d30194;stroke-linecap:round;stroke-linejoin:round;stroke-width:5px;}</style></defs><path class="cls-1" d="M242.62,73.51H108.08L75.76,50.05H25.3S7,48.9,7,64.92v129.6c0,8.38,8.36,15.18,18.69,15.18H242.62c10.32,0,18.68-6.79,18.69-15.18h0V88.69C261.31,80.31,252.94,73.51,242.62,73.51Z"/><path class="cls-1" d="M111.51,154.69s-6,2.51-8.5,2.61-14.35-1.16-18.27,10.37c0,0,21.69-9.9,29.81,1.27s-6.85,10.27-2.92,23.08c0,0,3.68-11.67,15.85-13.83s10.15-11.92,10.15-11.92,5.58,13.57,16.11,16.36,13.44,8.5,15.09,13.32c0,0,6-11.16-10-23s2-11.66,2-11.66,18.52.12,27.27,6.46c0,0-7.22-9.36-28.47-13.87a86,86,0,0,1-9.94-2.86"/><path class="cls-1" d="M157.5,131.22a12.52,12.52,0,0,0-10.16-12.3,12.78,12.78,0,0,0-24.45-3.83A16.08,16.08,0,0,0,102,130.43a16.2,16.2,0,0,0,.6,4.38,12.53,12.53,0,0,0,8.53,19.34,12.78,12.78,0,0,0,20,1.83A12.52,12.52,0,0,0,150,145.2a12.79,12.79,0,0,0-.23-2.41A12.52,12.52,0,0,0,157.5,131.22Z"/><path class="cls-1" d="M136.64,128.65a7.35,7.35,0,1,0-10.83-9.88,12.59,12.59,0,0,0-13.75,20.34,3.6,3.6,0,1,0,6.16,3.62,13.07,13.07,0,0,0,3,.36,12.59,12.59,0,0,0,10.08-5,5.4,5.4,0,0,0,8-4.73A5.38,5.38,0,0,0,136.64,128.65Z"/><circle class="cls-1" cx="148" cy="128.26" r="2.59"/><path class="cls-1" d="M141,143.94a3.57,3.57,0,0,0-3.57,3.44,2.54,2.54,0,1,0,2.51,3.56,3.73,3.73,0,0,0,1.06.16,3.58,3.58,0,1,0,0-7.16Z"/></svg>