<svg id="Capa_1" data-name="Capa 1" xmlns="http://www.w3.org/2000/svg" viewBox="0 0 201.03 201.03"><defs><style>.cls-1{fill:none;stroke:#5c9e97;stroke-linecap:round;stroke-linejoin:round;stroke-width:3.19px;}</style></defs><g id="Contactos_de_emergencia" data-name="Contactos de emergencia"><path id="Trazado_24" data-name="Trazado 24" class="cls-1" d="M26.35,60.25H41.72a7.55,7.55,0,0,0,7.54-7.54h0a7.54,7.54,0,0,0-7.54-7.53H26.35a7.53,7.53,0,0,0-7.53,7.53h0A7.54,7.54,0,0,0,26.35,60.25Z"/><path id="Trazado_25" data-name="Trazado 25" class="cls-1" d="M158.5,1.65H51.93A23.71,23.71,0,0,0,28.22,25.36h0V38.92H42a13.4,13.4,0,1,1,0,26.79H28.22V87.89H42a13.4,13.4,0,1,1,0,26.79H28.22v21.55H42A13.4,13.4,0,0,1,42,163H28.22v12.63a23.71,23.71,0,0,0,23.7,23.72H158.5a23.72,23.72,0,0,0,23.71-23.71V25.37A23.72,23.72,0,0,0,158.5,1.65ZM110,54.37c28.75,2.72,23.37,32.39,23.37,32.39-5.78,29.45-23.37,27.7-23.37,27.7s-17.6,1.75-23.38-27.7C86.61,86.76,81.23,57.09,110,54.37Zm0,80.9H63.57C69.13,113.34,91,111.63,91,111.63c2.2,11.12,19,10.47,19,10.47s16.8.65,19-10.47c0,0,21.84,1.71,27.4,23.64Z"/><path id="Trazado_26" data-name="Trazado 26" class="cls-1" d="M26.35,108.22H41.72a7.55,7.55,0,0,0,7.54-7.54h0a7.54,7.54,0,0,0-7.54-7.53H26.35a7.54,7.54,0,0,0-7.53,7.54h0A7.53,7.53,0,0,0,26.35,108.22Z"/><path id="Trazado_27" data-name="Trazado 27" class="cls-1" d="M49.26,149.81h0a7.53,7.53,0,0,0-7.53-7.53H26.35a7.53,7.53,0,0,0-7.53,7.53h0a7.53,7.53,0,0,0,7.53,7.53H41.73A7.53,7.53,0,0,0,49.26,149.81Z"/></g></svg>