<svg id="Capa_1" data-name="Capa 1" xmlns="http://www.w3.org/2000/svg" viewBox="0 0 201.03 201.03"><defs><style>.cls-1{fill:none;stroke:#5c9e97;stroke-linecap:round;stroke-linejoin:round;stroke-width:2.82px;}</style></defs><g id="Donador_de_organos" data-name="Donador de organos"><path id="Trazado_124" data-name="Trazado 124" class="cls-1" d="M199.35,44.71V25.81a4.51,4.51,0,0,0-3.71-4.63H8.38c-7.59,0-6.66,7.41-6.66,7.41s.37,11.3.37,15.93,4.63,4.63,4.63,4.63H72.66V43.5a8.43,8.43,0,0,1,8.43-8.43h39.44A8.43,8.43,0,0,1,129,43.5h0v5.65h65.2C199.72,49.15,199.35,44.71,199.35,44.71Z"/><path id="Trazado_125" data-name="Trazado 125" class="cls-1" d="M6.4,49.27l13,121.5s-.19,9.08,8,9.08h146s7.78-1.85,7.78-8.52,12.6-121.88,12.6-121.88ZM100,151.79A37.23,37.23,0,0,1,62.8,114.56h0A37.23,37.23,0,1,1,100,151.79Z"/><path id="Trazado_126" data-name="Trazado 126" class="cls-1" d="M112.82,90.46A17.84,17.84,0,0,0,98,100.69,17.8,17.8,0,0,0,80.78,95.1c-14.19,2.76-22.7,27.1,23.07,47.12l.41.22C142.48,109.84,127.22,89,112.82,90.46Z"/></g></svg>