<svg id="Capa_1" data-name="Capa 1" xmlns="http://www.w3.org/2000/svg" viewBox="0 0 717.38 717.38"><defs><style>.cls-1{fill:none;stroke:#199e97;stroke-linecap:round;stroke-linejoin:round;stroke-width:11.7px;}</style></defs><g id="Grupo_18" data-name="Grupo 18"><path id="Trazado_44" data-name="Trazado 44" class="cls-1" d="M417.8,478.52c-17.28-4.81-25.49-4.77-25.49-4.77-12.95,64.57-111.48,60.77-111.48,60.77s-98.54,3.8-111.49-60.77c0,0-128.06,10-160.68,137.22H467.91"/><path id="Trazado_45" data-name="Trazado 45" class="cls-1" d="M475.15,405.93c-14.89-10.11-27.47-33.89-16-89,22.24-106.92,25.41-176.11-6.35-198.12s-66.71-9.43-66.71-9.43S373.37,30.77,259,30.77s-174.7,116.35-168.36,195,41.29,160.38-36.53,199.69c0,0,187.1,87.27,396.48,12.09m-64.53-70.27c-19.05,69.19-120.7,97.49-165.18,56.61S141.48,266.62,240,247.75,351.13,166,351.13,166C398.78,162.85,405.14,298.07,386.07,367.25Z"/></g><g id="Grupo_33" data-name="Grupo 33"><path id="Trazado_79" data-name="Trazado 79" class="cls-1" d="M521.5,643.58A133.62,133.62,0,0,1,427.41,515c0-74,58.61-134,130.91-134s130.92,60,130.92,134a133.63,133.63,0,0,1-94.1,128.58"/><ellipse id="Elipse_15" data-name="Elipse 15" class="cls-1" cx="558.32" cy="648.95" rx="36.82" ry="37.67"/><path id="Trazado_80" data-name="Trazado 80" class="cls-1" d="M561,381.05s-2,15.07-11.16,22.94-13.79,19-3.28,26.87,21.66,5.9,29.54-7.86"/><path id="Trazado_81" data-name="Trazado 81" class="cls-1" d="M682.14,472.09s26.59,0,26.59,39.77-24.54,40.08-24.54,40.08"/><path id="Trazado_82" data-name="Trazado 82" class="cls-1" d="M434.63,472.09s-26.59,0-26.59,39.77,24.55,40.08,24.55,40.08"/></g></svg>