<svg id="Capa_1" data-name="Capa 1" xmlns="http://www.w3.org/2000/svg" viewBox="0 0 137.36 136.26"><defs><style>.cls-1{fill:none;stroke:#a07319;stroke-miterlimit:10;stroke-width:5px;}</style></defs><path class="cls-1" d="M78.9,96.83a6.24,6.24,0,0,0,1.75.82C82.29,98,89.39,96,95.41,78.77S94.82,55,91.84,55.22s-1.24-3.14-5.18,8.16a20,20,0,0,1-7.76,9.7"/><path class="cls-1" d="M58,73.08a19.93,19.93,0,0,1-7.75-9.7c-3.94-11.3-2.19-7.9-5.18-8.16s-9.58,6.29-3.57,23.55S54.6,98,56.24,97.65A6.2,6.2,0,0,0,58,96.83"/><path class="cls-1" d="M78.9,73.08V57.39c.44-8.21,17.16-6.1,15.1-15.49a18.46,18.46,0,0,0-9.22-12.67s-2-.76-5.44,1.7-10.73,3.46-10.73,3.46a1,1,0,0,1-.33,0s-7.27-1-10.74-3.46-5.44-1.7-5.44-1.7A18.46,18.46,0,0,0,42.89,41.9C40.83,51.29,57.54,49.18,58,57.39V73.08a32.63,32.63,0,0,0,10.46,4.7A32.63,32.63,0,0,0,78.9,73.08Z"/><path class="cls-1" d="M74,91.36c-1.09-3-5.54-3.89-5.54-3.89s-4.44.86-5.53,3.89c-.8,2.2-3.1,4.33-4.93,5.47v7.62s-1.45,12.77,4.81,12.77h11.3c6.26,0,4.81-12.77,4.81-12.77V96.83C77.08,95.69,74.78,93.56,74,91.36Z"/></svg>