<svg id="Capa_1" data-name="Capa 1" xmlns="http://www.w3.org/2000/svg" viewBox="0 0 201.03 201.03"><defs><style>.cls-1{fill:none;stroke:#5c9e97;stroke-linecap:round;stroke-linejoin:round;stroke-width:2.22px;}</style></defs><g id="Estado_civil" data-name="Estado civil"><g id="Grupo_56" data-name="Grupo 56"><g id="Grupo_55" data-name="Grupo 55"><path id="Trazado_120" data-name="Trazado 120" class="cls-1" d="M61.39,60.25c-37.18,3.52-30.23,41.88-30.23,41.88C38.64,140.21,61.39,138,61.39,138s22.75,2.26,30.22-35.82C91.61,102.13,98.57,63.77,61.39,60.25Z"/><path id="Trazado_121" data-name="Trazado 121" class="cls-1" d="M86,134.28c-2.86,14.39-24.58,13.54-24.58,13.54s-21.73.85-24.59-13.54c0,0-28.24,2.22-35.43,30.57h120C114.21,136.5,86,134.28,86,134.28Z"/></g></g><g id="Grupo_58" data-name="Grupo 58"><g id="Grupo_57" data-name="Grupo 57"><path id="Trazado_122" data-name="Trazado 122" class="cls-1" d="M121.4,164.85h78.26c-7.16-28.22-35.28-30.43-35.28-30.43-2.84,14.32-24.47,13.48-24.47,13.48s-21.63.84-24.48-13.48a43.66,43.66,0,0,0-14.58,4.44"/><path id="Trazado_123" data-name="Trazado 123" class="cls-1" d="M179.05,99.64c4.89-23.71,5.58-39-1.39-43.93S163,53.62,163,53.62s-2.79-17.44-27.89-17.44S96.76,62,98.16,79.42s9.06,35.57-8,44.28c0,0,48.12,23,99-2.79C189.17,120.91,174.17,123.35,179.05,99.64ZM163,110.8c-4.18,15.34-26.5,21.62-36.26,12.55s-17.43-34.86,4.18-39,24.41-18.13,24.41-18.13c10.46-.7,11.86,29.29,7.67,44.63Z"/></g></g></g></svg>