<svg id="Capa_1" data-name="Capa 1" xmlns="http://www.w3.org/2000/svg" viewBox="0 0 201.03 201.03"><defs><style>.cls-1,.cls-2{fill:none;stroke:#5c9e97;stroke-linecap:round;stroke-width:3.42px;}.cls-1{stroke-linejoin:round;}.cls-2{stroke-miterlimit:10;}</style></defs><g id="Cumpleaños"><g id="Grupo_32" data-name="Grupo 32"><g id="Grupo_29" data-name="Grupo 29"><path id="Trazado_70" data-name="Trazado 70" class="cls-1" d="M100.51,40.65C44.46,46,55,104,55,104c11.27,57.63,45.56,54.21,45.56,54.21s34.3,3.42,45.57-54.21c0,0,6.06-33.54-15.65-52"/><path id="Trazado_71" data-name="Trazado 71" class="cls-1" d="M137.58,152.71c-4.31,21.77-37.07,20.49-37.07,20.49s-32.75,1.28-37.06-20.49c0,0-42.57,3.36-53.41,46.26H191C180.15,156.07,137.58,152.71,137.58,152.71Z"/></g><g id="Grupo_30" data-name="Grupo 30"><path id="Trazado_72" data-name="Trazado 72" class="cls-1" d="M100.42,40.75,132.91,3l-2.57,49.46s-2.83,6.54-18.25-.14C98,46.17,100.42,40.75,100.42,40.75Z"/><path id="Trazado_73" data-name="Trazado 73" class="cls-1" d="M155,27.69c0-2.49-2.63-13.24-6.86-14S143.38,10,141.82,5s-8.91-2-8.91-2a5.6,5.6,0,0,1,6.24,3.18c1.89,4.17-3.25,8.46.12,11s6.71,4.69,4.93,9.46"/><path id="Trazado_74" data-name="Trazado 74" class="cls-1" d="M132.91,3s7.77-2.91,11.62,6,2.61-2.78,6.79,1.56,5.29,10.88,7.36,10.87"/><path id="Trazado_75" data-name="Trazado 75" class="cls-2" d="M127.37,9.42s-2.89,5.93,4.62,11.36"/><path id="Trazado_76" data-name="Trazado 76" class="cls-2" d="M122,15.71s-4.63,7.13,9.45,16.14"/><path id="Trazado_77" data-name="Trazado 77" class="cls-2" d="M114.78,24.06s-3.19,10.19,16,20.65"/><path id="Trazado_78" data-name="Trazado 78" class="cls-2" d="M107.11,33s.26,15.6,17.63,22.32"/></g></g></g></svg>