<svg id="Capa_1" data-name="Capa 1" xmlns="http://www.w3.org/2000/svg" viewBox="0 0 301.21 380.48"><defs><style>.cls-1,.cls-2{fill:none;stroke:#5c9e97;stroke-linecap:round;stroke-width:5px;}.cls-1{stroke-linejoin:round;}.cls-2{stroke-miterlimit:10;}</style></defs><g id="Grupo_26" data-name="Grupo 26"><g id="Grupo_27" data-name="Grupo 27"><path id="Trazado_55" data-name="Trazado 55" class="cls-1" d="M29.25,304.76,113,49.53l89.77,251.05s-.57,38.39-91.3,37.27C28.17,336.81,29.25,304.76,29.25,304.76Z"/><path id="Trazado_56" data-name="Trazado 56" class="cls-1" d="M274.28,126.27C268.84,114,233.68,66,210.94,70.82s-31.2-8.32-49.45-30.07S113,49.53,113,49.53s19.67-13.94,37.73,2.83,1.3,48.79,23.44,54.45,43.2,9.36,44.21,36.73"/><path id="Trazado_57" data-name="Trazado 57" class="cls-1" d="M113,49.53s32.75-30.62,70.48,5.86,7.26-19.2,37.13-6.36,48.94,43,59.24,38.67"/><path id="Trazado_58" data-name="Trazado 58" class="cls-2" d="M98.71,93s-2.16,35.45,46.55,46.8"/><path id="Trazado_59" data-name="Trazado 59" class="cls-2" d="M84.76,135.54s-8.3,45,80.6,60.48"/><path id="Trazado_60" data-name="Trazado 60" class="cls-2" d="M66.27,191.92s5.22,57.25,122.42,69.34"/><path id="Trazado_61" data-name="Trazado 61" class="cls-2" d="M46.5,252.17s33.6,76.93,134.22,74.17"/></g></g></svg>