<svg id="Capa_1" data-name="Capa 1" xmlns="http://www.w3.org/2000/svg" viewBox="0 0 201.03 201.03"><defs><style>.cls-1{fill:none;stroke:#5c9e97;stroke-linecap:round;stroke-linejoin:round;stroke-width:3.32px;}</style></defs><g id="Tipo_de_sangre" data-name="Tipo de sangre"><path id="Trazado_115" data-name="Trazado 115" class="cls-1" d="M177.7,106.3C165.86,63.87,103.41,4.57,100.57,1.89v-.1l0,.05-.06-.05v.1c-2.84,2.68-65.29,62-77.14,104.41-12.06,43.25,29,94.51,77.2,92.91C148.74,200.81,189.78,149.55,177.7,106.3Zm-50,25.25H113.54v14.14a12.62,12.62,0,0,1-25.24,0h0V131.55H74.17a12.62,12.62,0,1,1,0-25.24H88.3V92.17a12.63,12.63,0,0,1,25.25,0h0v14.14h14.13a12.62,12.62,0,1,1,0,25.24Z"/></g></svg>