<svg id="Capa_1" data-name="Capa 1" xmlns="http://www.w3.org/2000/svg" viewBox="0 0 201.03 201.03"><defs><style>.cls-1,.cls-2{fill:none;stroke:#5c9e97;stroke-linecap:round;stroke-width:3.42px;}.cls-1{stroke-linejoin:round;}.cls-2{stroke-miterlimit:10;}</style></defs><g id="Grado_maxmo_de_estudios" data-name="Grado maxmo de estudios"><g id="Grupo_46" data-name="Grupo 46"><g id="Grupo_43" data-name="Grupo 43"><path id="Trazado_104" data-name="Trazado 104" class="cls-1" d="M72.88,54.68c-23.28,17.63-17,52-17,52,11.05,56.19,44.66,52.86,44.66,52.86s33.62,3.33,44.67-52.86c0,0,6.2-34.16-16.77-51.85"/><path id="Trazado_105" data-name="Trazado 105" class="cls-1" d="M136.84,154.17c-4.22,21.23-36.33,20-36.33,20s-32.1,1.25-36.32-20c0,0-41.73,3.28-52.36,45.11H189.2C178.57,157.45,136.84,154.17,136.84,154.17Z"/></g><g id="Grupo_45" data-name="Grupo 45"><path id="Trazado_106" data-name="Trazado 106" class="cls-1" d="M101.57,1.75l-51,18.63,51,18.29,48.94-18.46Z"/><g id="Grupo_44" data-name="Grupo 44"><path id="Trazado_108" data-name="Trazado 108" class="cls-1" d="M72.92,28.49V52.27s8.52,13.53,27.77,13.54,27.77-13.54,27.77-13.54V28.49"/></g><line id="Línea_10" data-name="Línea 10" class="cls-2" x1="145.87" y1="21.96" x2="145.87" y2="38.58"/><path id="Rectángulo_20" data-name="Rectángulo 20" class="cls-1" d="M145.09,38.58h1.48a3.35,3.35,0,0,1,3.34,3.34V52.29a3.34,3.34,0,0,1-3.34,3.34h-1.48a3.34,3.34,0,0,1-3.35-3.34V41.92A3.35,3.35,0,0,1,145.09,38.58Z"/></g></g></g></svg>