<svg id="iconWomen_svg__Capa_1" data-name="Capa 1" viewBox="0 0 201.03 201.03"><defs><style>.iconWomen_svg__cls-3{fill:none;stroke-width:3.28px;stroke:#5c9e97;stroke-linejoin:round}</style></defs><g id="iconWomen_svg__Boton_mujer" data-name="Boton mujer"><g id="iconWomen_svg__Rect\xE1ngulo_18" data-name="Rect\xE1ngulo 18"><path d="M34.61 0h131.81A34.78 34.78 0 01201 35v131.07a34.78 34.78 0 01-34.61 35H34.61a34.78 34.78 0 01-34.61-35V35A34.78 34.78 0 0134.61 0z" fill="#fff"></path><path d="M34.61 1.65h131.81A33.14 33.14 0 01199.4 35v131.07a33.14 33.14 0 01-33 33.31H34.61a33.15 33.15 0 01-33-33.31V35a33.15 33.15 0 0133-33.35z" stroke="#6f6f6f" fill="none" stroke-width="3.28"></path></g><g id="iconWomen_svg__Grupo_18" data-name="Grupo 18"><path id="iconWomen_svg__Trazado_44" data-name="Trazado 44" class="iconWomen_svg__cls-3" d="M131.73 143.34c-3.63 18.1-31.26 17-31.26 17s-27.63 1.06-31.26-17c0 0-35.91 2.79-45 38.47h152.57c-9.14-35.68-45.05-38.47-45.05-38.47z"></path><path id="iconWomen_svg__Trazado_45" data-name="Trazado 45" class="iconWomen_svg__cls-3" d="M150.47 99.37c6.23-30 7.12-49.38-1.79-55.55S130 41.17 130 41.17s-3.56-22-35.63-22-49 32.62-47.2 54.67 11.57 45-10.25 56c0 0 61.46 29.1 126.48-3.53-.02-.05-19.17 3.04-12.93-26.94zM130 113.48c-5.34 19.39-33.85 27.33-46.31 15.87S61.4 85.26 89 80s31.18-23 31.18-23c13.36-.84 15.15 37.08 9.82 56.48z"></path></g></g></svg>