<svg id="iconMen_svg__Capa_1" data-name="Capa 1" viewBox="0 0 201.03 201.03"><defs><style>.iconMen_svg__cls-3{fill:none;stroke:#5c9e97;stroke-linejoin:round;stroke-width:3.3px}</style></defs><g id="iconMen_svg__Boton_Hombre" data-name="Boton Hombre"><g id="iconMen_svg__Trazado_48" data-name="Trazado 48"><path d="M163 199.39H38a36.19 36.19 0 01-20.33-6.21 35.7 35.7 0 01-5.38-4.43 37 37 0 01-4.45-5.38 36.1 36.1 0 01-6.2-20.31V38a36.1 36.1 0 016.2-20.31 37.51 37.51 0 014.45-5.38 36.32 36.32 0 015.38-4.43A36.19 36.19 0 0138 1.64h125a36.19 36.19 0 0120.33 6.21 36.92 36.92 0 015.39 4.43 37.45 37.45 0 014.44 5.38A36.19 36.19 0 01199.39 38v125.06a36.19 36.19 0 01-6.21 20.31 36.91 36.91 0 01-4.44 5.38 36.29 36.29 0 01-5.39 4.43 36.19 36.19 0 01-20.35 6.21z" fill="#fff"></path><path d="M38 3.29A34.66 34.66 0 003.29 38v125.06A34.67 34.67 0 0038 197.74h125a34.66 34.66 0 0034.72-34.68V38a34.6 34.6 0 00-10.17-24.53A34.58 34.58 0 00163 3.29H38M38 0h125a38 38 0 0138 38v125.06a38 38 0 01-38 38H38a38 38 0 01-38-38V38A38 38 0 0138 0z" fill="#6f6f6f"></path></g><g id="iconMen_svg__Grupo_19" data-name="Grupo 19"><path id="iconMen_svg__Trazado_46" data-name="Trazado 46" class="iconMen_svg__cls-3" d="M100.47 19.41C44.53 24.87 55 84.32 55 84.32c11.24 59 45.47 55.52 45.47 55.52s34.23 3.5 45.47-55.52c0 0 10.47-59.45-45.47-64.91z"></path><path id="iconMen_svg__Trazado_47" data-name="Trazado 47" class="iconMen_svg__cls-3" d="M137.46 134.16c-4.3 22.29-37 21-37 21s-32.69 1.31-37-21c0 0-42.49 3.44-53.31 47.37h180.61c-10.82-43.93-53.3-47.37-53.3-47.37z"></path></g></g></svg>