<svg xmlns="http://www.w3.org/2000/svg" width="51.097" height="53.562" viewBox="0 0 51.097 53.562"><defs><style>.a{fill:none;stroke:#fff;stroke-linecap:round;stroke-linejoin:round;stroke-miterlimit:10;}</style></defs><g transform="translate(0.5 0.5)"><ellipse class="a" cx="2.277" cy="2.277" rx="2.277" ry="2.277" transform="translate(22.771 4.172)"/><path class="a" d="M-555.742,1665.9a4.554,4.554,0,0,1,4.469,3.682,18.318,18.318,0,0,1,7.163,2.591c-1.427-3.81-4.65-7.5-11.707-8.169-7.092.672-10.313,4.4-11.728,8.226a18.279,18.279,0,0,1,7.337-2.657A4.554,4.554,0,0,1-555.742,1665.9Z" transform="translate(580.791 -1664)"/><path class="a" d="M-570.992,1702.926c3.1,15.817,12.556,14.88,12.556,14.88s9.451.937,12.556-14.88a20.257,20.257,0,0,0-.042-6.15c-.644-.311-5.023-2.379-8.4-2.7a4.551,4.551,0,0,1-4.04,2.456,4.551,4.551,0,0,1-4.042-2.46c-3.645.321-8.515,2.727-8.555,2.746A20.256,20.256,0,0,0-570.992,1702.926Z" transform="translate(583.409 -1685.527)"/><path class="a" d="M-564.258,1784.947a16.21,16.21,0,0,0-9.306-11.161v3.173a3.467,3.467,0,0,1,2.553,3.149v4.1H-573.4v-3.416a1.8,1.8,0,0,0-2.049-1.708,1.712,1.712,0,0,0-1.879,1.879v3.416h-2.391l-.171-3.586a4.181,4.181,0,0,1,2.7-3.83l-.156-4.44a13.528,13.528,0,0,0-1.631-.272c-1.186,5.976-10.213,5.624-10.213,5.624s-9.026.352-10.213-5.624a13.779,13.779,0,0,0-1.872.327l-.162,4.627a3.839,3.839,0,0,1,1.933,3.332,3.843,3.843,0,0,1-3.842,3.843,3.843,3.843,0,0,1-3.843-3.843,3.838,3.838,0,0,1,2.135-3.438v-3.2a16.2,16.2,0,0,0-9.067,11.053l-.042,9.109h50.1Zm-21.725,1.423h-1.993v1.993h-2.277v-1.993h-1.992v-2.277h1.992V1782.1h2.277v1.993h1.993Z" transform="translate(614.163 -1741.494)"/><ellipse class="a" cx="1.423" cy="1.423" rx="1.423" ry="1.423" transform="translate(9.393 37.618)"/></g></svg>