<svg xmlns="http://www.w3.org/2000/svg" width="44.47" height="53.605" viewBox="0 0 44.47 53.605"><defs><style>.a{fill:none;stroke:#fff;stroke-linecap:round;stroke-linejoin:round;stroke-miterlimit:10;}</style></defs><g transform="translate(0.5 0.5)"><path class="a" d="M-167,1708.77h4.09a2,2,0,0,0,2-2h0a2,2,0,0,0-2-2H-167a2,2,0,0,0-2,2h0A2,2,0,0,0-167,1708.77Z" transform="translate(169.004 -1693.181)"/><path class="a" d="M-125.543,1664H-153.9a6.309,6.309,0,0,0-6.309,6.309v3.606h3.678a3.565,3.565,0,0,1,3.564,3.565,3.564,3.564,0,0,1-3.564,3.564H-160.2v5.9h3.678a3.564,3.564,0,0,1,3.564,3.564,3.564,3.564,0,0,1-3.564,3.564H-160.2v5.736h3.678a3.565,3.565,0,0,1,3.564,3.565,3.564,3.564,0,0,1-3.564,3.564H-160.2v3.36a6.308,6.308,0,0,0,6.309,6.308h28.353a6.308,6.308,0,0,0,6.309-6.308v-39.988A6.309,6.309,0,0,0-125.543,1664Zm-12.906,14.025c4.927.467,6.31,6.6,6.31,6.6l-.091,2.015c-1.538,7.834-6.219,7.37-6.219,7.37s-4.681.464-6.219-7.37C-144.668,1686.643-146.1,1678.75-138.449,1678.025Zm0,21.523H-150.8a8.488,8.488,0,0,1,7.29-6.29c.588,2.96,5.058,2.785,5.058,2.785s4.471.174,5.059-2.785a8.488,8.488,0,0,1,7.29,6.29Z" transform="translate(162.704 -1664)"/><path class="a" d="M-167,1753.692h4.09a2,2,0,0,0,2-2h0a2,2,0,0,0-2-2H-167a2,2,0,0,0-2,2h0A2,2,0,0,0-167,1753.692Z" transform="translate(169.004 -1725.34)"/><path class="a" d="M-160.906,1797.688h0a2,2,0,0,0-2-2H-167a2,2,0,0,0-2,2h0a2,2,0,0,0,2,2h4.09A2,2,0,0,0-160.906,1797.688Z" transform="translate(169.004 -1758.27)"/></g></svg>