<svg xmlns="http://www.w3.org/2000/svg" width="51.708" height="39.974" viewBox="0 0 52.708 40.974"><defs><style>.a,.b{fill:none;stroke:#ffff;stroke-linejoin:round;stroke-miterlimit:10;}.b{stroke-linecap:round;}</style></defs><g transform="translate(0.5 0.506)"><g transform="translate(13.862 10.653)"><path class="a" d="M841.082,1664.5c-7.359.726-5.982,8.622-5.982,8.622,1.479,7.839,5.982,7.374,5.982,7.374s4.5.464,5.982-7.374C847.064,1673.122,848.441,1665.226,841.082,1664.5Z" transform="translate(-829.154 -1664.5)"/><path class="a" d="M800.036,1795.44c-.568,2.961-4.886,2.787-4.886,2.787s-4.318.174-4.886-2.787a8.243,8.243,0,0,0-7.042,6.293h23.856A8.242,8.242,0,0,0,800.036,1795.44Z" transform="translate(-783.222 -1780.248)"/></g><path class="b" d="M1178.907,1805.1h-25.151l-6.572-5.873h-12.462a3.429,3.429,0,0,0-3.724,3.724v32.44a3.8,3.8,0,0,0,3.8,3.8h44.109a3.8,3.8,0,0,0,3.8-3.8V1808.9A3.8,3.8,0,0,0,1178.907,1805.1Z" transform="translate(-1130.999 -1799.222)"/></g></svg>