<svg xmlns="http://www.w3.org/2000/svg" width="42.484" height="53.42" viewBox="0 0 42.484 53.42"><defs><style>.a{fill:none;stroke:#fff;stroke-linecap:round;stroke-linejoin:round;stroke-miterlimit:10;}</style></defs><g transform="translate(0.5 0.5)"><path class="a" d="M-353.371,1669.228h-1.771a4.991,4.991,0,0,1-3.369-2.047c-.97-1.724-1.724-2.694-2.8-2.694h-2.234c-1.077,0-1.832.97-2.8,2.694a4.991,4.991,0,0,1-3.369,2.047h-1.742a.709.709,0,0,0-.707.707v3.542a.709.709,0,0,0,.707.707h18.088a.709.709,0,0,0,.707-.707v-3.542A.709.709,0,0,0-353.371,1669.228Z" transform="translate(383.129 -1664.487)"/><g transform="translate(0 5.442)"><path class="a" d="M-377.111,1683.639h-1.471a.494.494,0,0,1,.018.127v3.267h1.18a4.895,4.895,0,0,1,4.881,4.881v30.428a4.9,4.9,0,0,1-4.881,4.881H-402.64a4.9,4.9,0,0,1-4.881-4.881v-30.428a4.895,4.895,0,0,1,4.881-4.881h1.126v-3.267a.5.5,0,0,1,.018-.127h-1.417a7.863,7.863,0,0,0-7.841,7.84v31.3a7.863,7.863,0,0,0,7.841,7.84h25.8a7.863,7.863,0,0,0,7.841-7.84v-31.3A7.863,7.863,0,0,0-377.111,1683.639Z" transform="translate(410.754 -1683.639)"/></g><path class="a" d="M-365.158,1724.028l-10.99,3.663c0,12.391,10.99,19.287,10.99,19.287s10.991-6.9,10.991-19.287Z" transform="translate(385.98 -1707.111)"/><path class="a" d="M-345,1749.769h-3.556v-3.556h-2.8v3.556h-3.556v2.8h3.556v3.556h2.8v-3.556H-345Z" transform="translate(370.777 -1722.993)"/></g></svg>