<svg xmlns="http://www.w3.org/2000/svg" viewBox="0 0 54.586 51.272"><defs><style>.jer-1,.jer-2{fill:none;stroke:#fff;stroke-linecap:round;stroke-miterlimit:10;}.jer-2{stroke-linejoin:round;}</style></defs><g transform="translate(0.707 0.707)"><line class="jer-1" x1="11.749" y2="10.845" transform="translate(41.424)"/><path class="jer-2" d="M162.338,1703.8l3.916-4.218-2.41-2.711-4.519,3.916Z" transform="translate(-123.625 -1687.531)"/><path class="jer-2" d="M150.422,1717.406l-7.532-8.134s3.08-1.439,6.134,1.615A5.863,5.863,0,0,1,150.422,1717.406Z" transform="translate(-111.86 -1696.167)"/><line class="jer-1" x1="12.051" y1="12.954" transform="translate(5.423 32.386)"/><path class="jer-2" d="M68.308,1739.649l23.5-21.39-7.532-8.134-23.263,21.8Z" transform="translate(-53.245 -1697.02)"/><line class="jer-1" x2="3.916" y2="3.916" transform="translate(15.063 34.796)"/><line class="jer-1" x2="3.916" y2="3.916" transform="translate(18.678 31.482)"/><line class="jer-1" x2="3.916" y2="3.916" transform="translate(22.595 28.168)"/><line class="jer-1" x2="3.916" y2="3.916" transform="translate(26.21 24.553)"/><line class="jer-1" x2="3.916" y2="3.916" transform="translate(29.825 21.239)"/><line class="jer-1" x2="8.435" y2="9.038" transform="translate(0 40.821)"/><path class="jer-2" d="M46.123,1803.677l7.066-6.5-4.054-4.35-6.91,6.821Z" transform="translate(-39.796 -1756.229)"/><line class="jer-1" y1="6.327" x2="6.628" transform="translate(4.519 39.014)"/></g></svg>