<svg id="Capa_1" data-name="Capa 1" xmlns="http://www.w3.org/2000/svg" viewBox="0 0 201.03 201.03"><defs><style>.cls-1{fill:none;stroke:#5c9e97;stroke-linecap:round;stroke-linejoin:round;stroke-width:3.19px;}</style></defs><g id="Contacto_medico" data-name="Contacto medico"><circle id="Elipse_4" data-name="Elipse 4" class="cls-1" cx="100.52" cy="25.92" r="8.56"/><g id="Grupo_10" data-name="Grupo 10"><path id="Trazado_21" data-name="Trazado 21" class="cls-1" d="M100.52,8.8a17.11,17.11,0,0,1,16.8,13.85c4.37.45,14.18,2.29,26.94,9.74-5.36-14.33-17.49-28.21-44-30.72C73.56,4.2,61.44,18.2,56.12,32.61c13.21-7.8,23.33-9.59,27.59-10A17.14,17.14,0,0,1,100.52,8.8Z"/><path id="Trazado_22" data-name="Trazado 22" class="cls-1" d="M53,67.11c11.67,59.49,47.22,56,47.22,56s35.55,3.52,47.23-56A76.33,76.33,0,0,0,147.3,44c-2.42-1.17-18.89-8.95-31.59-10.16a17.11,17.11,0,0,1-30.39,0C71.6,35,53.29,44.06,53.14,44.13A76,76,0,0,0,53,67.11Z"/><path id="Trazado_23" data-name="Trazado 23" class="cls-1" d="M194,165.1c-6.1-24-21.85-36-35-42v11.94a13,13,0,0,1,9.61,11.84v15.42h-9V149.47s0-6.42-7.7-6.42-7.07,7.07-7.07,7.07V163h-9l-.64-13.49s0-11,10.16-14.4l-.59-16.7a49,49,0,0,0-6.13-1c-4.47,22.47-38.42,21.15-38.42,21.15s-33.95,1.32-38.41-21.15a49.62,49.62,0,0,0-7,1.23L54.17,136A14.44,14.44,0,0,1,47,163h0a14.46,14.46,0,0,1-14.46-14.45h0a14.43,14.43,0,0,1,8-12.93V123.53c-13,6.1-28.15,18.11-34.1,41.57L6.3,199.36H194.73Zm-81.72,5.36H104.8V178H96.23v-7.49H88.74v-8.57h7.49V154.4h8.57v7.49h7.49Z"/><circle id="Elipse_5" data-name="Elipse 5" class="cls-1" cx="46.99" cy="148.51" r="5.35"/></g></g></svg>