<svg id="Capa_1" data-name="Capa 1" xmlns="http://www.w3.org/2000/svg" viewBox="0 0 273.32 271.12"><defs><style>.cls-1{fill:none;stroke:#199e97;stroke-miterlimit:10;stroke-width:5px;}</style></defs><rect class="cls-1" x="112.88" y="71.39" width="18.99" height="49.87" rx="9.5"/><rect class="cls-1" x="141.45" y="71.39" width="18.99" height="49.87" rx="9.5"/><path class="cls-1" d="M215.28,96.33a78.62,78.62,0,1,0-88.12,78v25H98.54a9.5,9.5,0,1,0,0,19h28.62v30.74a9.5,9.5,0,1,0,19,0V218.33h28.63a9.5,9.5,0,1,0,0-19H146.15v-25A78.62,78.62,0,0,0,215.28,96.33Zm-135.45,0a57,57,0,1,1,57,57A57,57,0,0,1,79.83,96.33Z"/></svg>