<svg id="Capa_1" data-name="Capa 1" xmlns="http://www.w3.org/2000/svg" viewBox="0 0 273.32 271.12"><defs><style>.cls-1{fill:none;stroke:#199e97;stroke-miterlimit:10;stroke-width:7.51px;}</style></defs><path class="cls-1" d="M61.75,141.53s-98.15,38.81-33.33,101.2,103.15-36.49,103.15-36.49c42.53-65.54,77.61-76,77.61-76s98.15-38.81,33.33-101.2S139.36,65.58,139.36,65.58,121.45,106.32,61.75,141.53Z"/><path class="cls-1" d="M58,145h0c-12.29-12.3-14.68-29.85-5.33-39.2L102.39,56.1c9.35-9.35,26.9-7,39.2,5.33h0"/><path class="cls-1" d="M209.77,129.61h0c12.29,12.3,14.68,29.85,5.33,39.2L165.41,218.5c-9.35,9.35-26.9,7-39.2-5.33h0"/><rect class="cls-1" x="112.56" y="70.02" width="45.63" height="131.61" rx="22.82" transform="translate(135.69 -55.95) rotate(45)"/></svg>