<svg id="Capa_1" data-name="Capa 1" xmlns="http://www.w3.org/2000/svg" viewBox="0 0 201.03 201.03"><defs><style>.cls-1{fill:none;stroke:#fff;stroke-linecap:round;stroke-linejoin:round;stroke-width:3.18px;}</style></defs><g id="Contactos_de_emergencia" data-name="Contactos de emergencia"><path id="Trazado_24" data-name="Trazado 24" class="cls-1" d="M26.57,60.37H41.9a7.51,7.51,0,0,0,7.51-7.51h0a7.51,7.51,0,0,0-7.51-7.51H26.57a7.5,7.5,0,0,0-7.5,7.51h0A7.51,7.51,0,0,0,26.57,60.37Z"/><path id="Trazado_25" data-name="Trazado 25" class="cls-1" d="M158.32,2H52.07A23.64,23.64,0,0,0,28.43,25.59h0V39.1H42.22a13.36,13.36,0,0,1,0,26.72H28.44v22.1H42.22a13.36,13.36,0,0,1,0,26.71H28.44v21.5H42.22a13.36,13.36,0,0,1,0,26.71H28.44v12.59a23.63,23.63,0,0,0,23.62,23.65H158.32A23.63,23.63,0,0,0,182,175.44V25.59A23.63,23.63,0,0,0,158.32,2ZM110,54.51c28.67,2.71,23.31,32.29,23.31,32.29C127.5,116.16,110,114.42,110,114.42S92.42,116.16,86.65,86.8C86.65,86.8,81.29,57.22,110,54.51Zm0,80.65H63.68C69.23,113.31,91,111.59,91,111.59,93.2,122.68,110,122,110,122s16.76.65,19-10.44c0,0,21.77,1.72,27.32,23.57Z"/><path id="Trazado_26" data-name="Trazado 26" class="cls-1" d="M26.57,108.19H41.9a7.51,7.51,0,0,0,7.51-7.51h0a7.51,7.51,0,0,0-7.51-7.51H26.57a7.52,7.52,0,0,0-7.5,7.52h0A7.5,7.5,0,0,0,26.57,108.19Z"/><path id="Trazado_27" data-name="Trazado 27" class="cls-1" d="M49.41,149.66h0a7.51,7.51,0,0,0-7.51-7.51H26.58a7.51,7.51,0,0,0-7.51,7.51h0a7.51,7.51,0,0,0,7.51,7.51H41.9A7.51,7.51,0,0,0,49.41,149.66Z"/></g></svg>