<svg id="Capa_1" data-name="Capa 1" xmlns="http://www.w3.org/2000/svg" viewBox="0 0 137.36 136.26"><defs><style>.cls-1{fill:none;stroke:#2c6d81;stroke-linecap:round;stroke-linejoin:round;stroke-width:5px;}</style></defs><polyline class="cls-1" points="68.37 22.35 68.37 48.12 49.84 66.65 49.84 80.65"/><line class="cls-1" x1="36.7" y1="72.76" x2="49.84" y2="66.65"/><polyline class="cls-1" points="68.37 22.35 68.37 48.12 86.9 66.65 86.9 80.65"/><line class="cls-1" x1="100.05" y1="72.76" x2="86.9" y2="66.65"/><path class="cls-1" d="M59.11,43.5V33.62s1-6.37-6.38-6.37-18,4.87-26.45,23.55-12.89,58.09,7.19,58.09H53.34s5.91,0,5.91-5.91V71.09"/><path class="cls-1" d="M77.78,43.5V33.62s-1-6.37,6.37-6.37,18,4.87,26.46,23.55,12.88,58.09-7.2,58.09H83.55s-5.91,0-5.91-5.91V71.09"/></svg>