<svg id="Capa_1" data-name="Capa 1" xmlns="http://www.w3.org/2000/svg" viewBox="0 0 201.03 201.03"><defs><style>.cls-1,.cls-2{fill:none;stroke:#fff;stroke-linecap:round;stroke-width:2.95px;}.cls-1{stroke-miterlimit:10;}.cls-2{stroke-linejoin:round;}</style></defs><g id="Tratamiento"><line id="Línea_1" data-name="Línea 1" class="cls-1" x1="197.86" y1="9.23" x2="154.84" y2="48.95"/><path id="Trazado_28" data-name="Trazado 28" class="cls-2" d="M144.91,68.8l14.35-15.44-8.83-9.93L133.88,57.77Z"/><path id="Trazado_29" data-name="Trazado 29" class="cls-2" d="M144.36,87,116.79,57.22s11.27-5.27,22.46,5.91A21.47,21.47,0,0,1,144.36,87Z"/><line id="Línea_2" data-name="Línea 2" class="cls-1" x1="67.15" y1="175.25" x2="23.02" y2="127.82"/><path id="Trazado_30" data-name="Trazado 30" class="cls-2" d="M58.32,165.32l86-78.32L116.79,57.22,31.61,137Z"/><line id="Línea_3" data-name="Línea 3" class="cls-1" x1="58.32" y1="136.64" x2="72.66" y2="150.98"/><line id="Línea_4" data-name="Línea 4" class="cls-1" x1="71.56" y1="124.51" x2="85.9" y2="138.85"/><line id="Línea_5" data-name="Línea 5" class="cls-1" x1="85.9" y1="112.37" x2="100.24" y2="126.71"/><line id="Línea_6" data-name="Línea 6" class="cls-1" x1="99.14" y1="99.14" x2="113.48" y2="113.48"/><line id="Línea_7" data-name="Línea 7" class="cls-1" x1="112.37" y1="87" x2="126.71" y2="101.34"/><line id="Línea_8" data-name="Línea 8" class="cls-1" x1="3.17" y1="158.7" x2="34.05" y2="191.8"/><path id="Trazado_31" data-name="Trazado 31" class="cls-2" d="M26.33,183l25.88-23.78L37.36,143.26l-25.3,25Z"/><line id="Línea_9" data-name="Línea 9" class="cls-1" x1="19.71" y1="175.25" x2="43.98" y2="152.09"/></g></svg>