<svg id="Capa_1" data-name="Capa 1" xmlns="http://www.w3.org/2000/svg" viewBox="0 0 137.36 136.26"><defs><style>.cls-1{fill:none;stroke:#772d11;stroke-linecap:round;stroke-linejoin:round;stroke-width:5px;}</style></defs><path class="cls-1" d="M65.56,27.4l-3.64,3.85a4.89,4.89,0,0,0,.39,7.1c3.7,3.7,7.88-.44,7.88-.44L77.5,30.6s4.33-4,0-8.31l-3.18-3.18a17.54,17.54,0,0,0-13-3.48c-8.09.86-13.85,4.06-20,12.07S19.12,56.26,15.83,77c0,0,0,12.37-1.64,16S16,110.79,51.58,117.2s62.15-2.68,64.66-4.33,9.43-5,10-13.07,0-30.21,0-30.21S127,58.08,115.54,55.4s-25.9,5.32-30.91,17.76"/><path class="cls-1" d="M53.37,44.29s-5.2,4.5-2.89,12.46,6,29.09-8.08,32.9"/><path class="cls-1" d="M90.41,77.64s-10-9.65-21.81-8c-13.89,2-20.25,16.45-20.25,16.45"/><path class="cls-1" d="M50.12,50.38H65a6.16,6.16,0,0,0,4.38-1.56c2-2,9.81-9.87,9.81-9.87s3.29-3.81-1-6.75l-1.42-.92"/></svg>