<svg id="Capa_1" data-name="Capa 1" xmlns="http://www.w3.org/2000/svg" viewBox="0 0 201.03 201.03"><defs><style>.cls-1{fill:none;stroke:#fff;stroke-linecap:round;stroke-linejoin:round;stroke-width:3.15px;}</style></defs><g id="Contacto_medico" data-name="Contacto medico"><circle id="Elipse_4" data-name="Elipse 4" class="cls-1" cx="100.52" cy="27.55" r="8.45"/><g id="Grupo_10" data-name="Grupo 10"><path id="Trazado_21" data-name="Trazado 21" class="cls-1" d="M100.52,10.64A16.9,16.9,0,0,1,117.1,24.31c4.31.45,14,2.27,26.59,9.62-5.3-14.14-17.26-27.84-43.45-30.32C73.91,6.1,62,19.92,56.7,34.14c13-7.69,23-9.46,27.23-9.86A16.93,16.93,0,0,1,100.52,10.64Z"/><path id="Trazado_22" data-name="Trazado 22" class="cls-1" d="M53.63,68.19c11.53,58.71,46.61,55.23,46.61,55.23s35.08,3.48,46.6-55.23a75.32,75.32,0,0,0-.15-22.83c-2.4-1.15-18.65-8.83-31.18-10a16.89,16.89,0,0,1-30,0C72,36.52,53.91,45.44,53.76,45.52A75.24,75.24,0,0,0,53.63,68.19Z"/><path id="Trazado_23" data-name="Trazado 23" class="cls-1" d="M192.78,164.9c-6-23.7-21.56-35.54-34.55-41.43v11.78a12.86,12.86,0,0,1,9.48,11.69v15.21h-8.87V149.48s0-6.34-7.61-6.34-7,7-7,7v12.68h-8.88l-.63-13.31s0-10.87,10-14.22l-.58-16.48a49.91,49.91,0,0,0-6-1c-4.41,22.18-37.91,20.87-37.91,20.87S66.73,140,62.33,117.77A51.29,51.29,0,0,0,55.38,119l-.6,17.18a14.26,14.26,0,0,1-7.09,26.63h0a14.26,14.26,0,0,1-14.26-14.26h0a14.25,14.25,0,0,1,7.92-12.76V123.87c-12.79,6-27.78,17.87-33.66,41l-.15,33.81h186Zm-80.64,5.28h-7.4v7.4H96.29v-7.4h-7.4v-8.45h7.4v-7.4h8.45v7.4h7.4Z"/><circle id="Elipse_5" data-name="Elipse 5" class="cls-1" cx="47.69" cy="148.52" r="5.28"/></g></g></svg>