<svg id="Capa_1" data-name="Capa 1" xmlns="http://www.w3.org/2000/svg" viewBox="0 0 201.03 201.03"><defs><style>.cls-1{fill:none;stroke:#5c9e97;stroke-linecap:round;stroke-linejoin:round;stroke-width:2.54px;}</style></defs><g id="Indicador_Inf_ginecologica" data-name="Indicador Inf ginecologica"><g id="Grupo_18" data-name="Grupo 18"><path id="Trazado_44" data-name="Trazado 44" class="cls-1" d="M116.56,127.58c-1.87,9.21-16,8.66-16,8.66s-14.16.54-16-8.66a26.82,26.82,0,0,0-23.09,19.56h78.21A26.82,26.82,0,0,0,116.56,127.58Z"/><path id="Trazado_45" data-name="Trazado 45" class="cls-1" d="M126.14,105c3.2-15.25,3.65-25.11-.91-28.24a11.34,11.34,0,0,0-9.58-1.35s-1.82-11.21-18.24-11.21S72.32,80.83,73.23,92,79.16,114.9,68,120.5a79.74,79.74,0,0,0,64.78-1.79S123,120.28,126.14,105Zm-10.51,7.17c-2.72,9.86-17.33,13.89-23.72,8.07s-11.4-22.42,2.73-25.11,16-11.65,16-11.65c6.88-.45,7.79,18.83,5.05,28.69Z"/></g><path id="Trazado_127" data-name="Trazado 127" class="cls-1" d="M185.13,46.42H88.66L63.46,23.9H15.66A13.14,13.14,0,0,0,1.38,35.81a13.63,13.63,0,0,0,0,2.39V162.62A14.57,14.57,0,0,0,16,177.19H185.13a14.58,14.58,0,0,0,14.58-14.57h0V61a14.59,14.59,0,0,0-14.57-14.59Z"/></g></svg>