<svg id="Capa_1" data-name="Capa 1" xmlns="http://www.w3.org/2000/svg" viewBox="0 0 201.03 201.03"><defs><style>.cls-1,.cls-2{fill:none;stroke:#fff;stroke-linejoin:round;stroke-width:2.46px;}.cls-2{stroke-linecap:round;}</style></defs><g id="Inf_basica" data-name="Inf basica"><g id="Grupo_19-2" data-name="Grupo 19-2"><path id="Trazado_46-2" data-name="Trazado 46-2" class="cls-1" d="M99.75,65C71.73,67.76,77,97.82,77,97.82c5.63,29.84,22.78,28.08,22.78,28.08s17.14,1.76,22.78-28.08C122.53,97.82,127.77,67.76,99.75,65Z"/><path id="Trazado_47-2" data-name="Trazado 47-2" class="cls-1" d="M118.35,122.83c-2.16,11.28-18.6,10.61-18.6,10.61s-16.44.67-18.6-10.61c0,0-21.37,1.74-26.81,24h90.82C139.72,124.57,118.35,122.83,118.35,122.83Z"/></g><path id="Trazado_37-2" data-name="Trazado 37-2" class="cls-2" d="M184,46.81H88.2l-25-22.36H15.73S1.56,23.36,1.56,38.63v123.5A14.46,14.46,0,0,0,16,176.6H184a14.46,14.46,0,0,0,14.47-14.46h0V61.28A14.47,14.47,0,0,0,184,46.81Z"/></g></svg>