<svg id="Capa_1" data-name="Capa 1" xmlns="http://www.w3.org/2000/svg" viewBox="0 0 201.03 201.03"><defs><style>.cls-1{fill:none;stroke:#fff;stroke-linecap:round;stroke-linejoin:round;stroke-width:3.16px;}</style></defs><g id="Seguro_medico" data-name="Seguro medico"><path id="Trazado_17" data-name="Trazado 17" class="cls-1" d="M134.23,20.26h-6.62s-9-1.21-12.6-7.66S108.56,2.53,104.54,2.53H96.19c-4,0-6.85,3.63-10.48,10.07s-12.59,7.66-12.59,7.66H66.61A2.64,2.64,0,0,0,64,22.9V36.14a2.65,2.65,0,0,0,2.64,2.65h67.62a2.65,2.65,0,0,0,2.64-2.65V22.9A2.64,2.64,0,0,0,134.23,20.26Z"/><g id="Grupo_8" data-name="Grupo 8"><path id="Trazado_18" data-name="Trazado 18" class="cls-1" d="M148.74,22.88h-5.5a1.49,1.49,0,0,1,.07.47V35.56h4.41A18.31,18.31,0,0,1,166,53.81V167.56a18.3,18.3,0,0,1-18.25,18.25H53.31a18.3,18.3,0,0,1-18.25-18.25V53.81A18.31,18.31,0,0,1,53.31,35.56h4.21V23.35a1.49,1.49,0,0,1,.07-.47h-5.3A29.38,29.38,0,0,0,23,52.18v117A29.39,29.39,0,0,0,52.29,198.5h96.45a29.41,29.41,0,0,0,29.32-29.31v-117A29.4,29.4,0,0,0,148.74,22.88Z"/></g><path id="Trazado_19" data-name="Trazado 19" class="cls-1" d="M100.82,65.77,59.73,79.47c0,46.32,41.09,72.1,41.09,72.1s41.09-25.78,41.09-72.1Z"/><path id="Trazado_20" data-name="Trazado 20" class="cls-1" d="M119.35,102.63h-13.3V89.34H95.58v13.29H82.29V113.1H95.58v13.3h10.47V113.1h13.3Z"/></g></svg>