<svg id="Capa_1" data-name="Capa 1" xmlns="http://www.w3.org/2000/svg" viewBox="0 0 137.36 136.26"><defs><style>.cls-1{fill:none;stroke:#19a054;stroke-linecap:round;stroke-linejoin:round;stroke-width:5px;}</style></defs><path class="cls-1" d="M38.58,18.62H54.73s5.93,24.9,20.66,24.9c0,0,6.11-10.42,17.68-10.42s20.9,9.84,24.29,20.74,5.07,37.1-18.84,50.1a53.31,53.31,0,0,1-23.9,5.84c-13.58,0-17.88-7.08-18.64-7.65s-6.41-5.17-11.76-.67S34,116.32,34,116.32H18.88s4.59-15.15,13.48-25.19a23.07,23.07,0,0,1,24.57-6.69c3.54,1.43,8.42,2,11.48-.1S76.92,78.42,76,70.86,71.85,60,68.12,58.43s-16.06-7.17-21.9-19.69S38.58,18.62,38.58,18.62Z"/></svg>