<svg id="Capa_1" data-name="Capa 1" xmlns="http://www.w3.org/2000/svg" viewBox="0 0 201.03 201.03"><defs><style>.cls-1,.cls-2{fill:none;stroke:#5c9e97;stroke-linecap:round;stroke-width:3px;}.cls-1{stroke-miterlimit:10;}.cls-2{stroke-linejoin:round;}</style></defs><g id="Tratamiento"><line id="Línea_1" data-name="Línea 1" class="cls-1" x1="199.43" y1="7.76" x2="155.72" y2="48.12"/><path id="Trazado_28" data-name="Trazado 28" class="cls-2" d="M145.63,68.29,160.2,52.6l-9-10.09L134.42,57.08Z"/><path id="Trazado_29" data-name="Trazado 29" class="cls-2" d="M145.07,86.78l-28-30.26s11.46-5.35,22.82,6A21.8,21.8,0,0,1,145.07,86.78Z"/><line id="Línea_2" data-name="Línea 2" class="cls-1" x1="66.61" y1="176.45" x2="21.77" y2="128.26"/><path id="Trazado_30" data-name="Trazado 30" class="cls-2" d="M57.64,166.37l87.43-79.59-28-30.26L30.5,137.63Z"/><line id="Línea_3" data-name="Línea 3" class="cls-1" x1="57.64" y1="137.22" x2="72.21" y2="151.8"/><line id="Línea_4" data-name="Línea 4" class="cls-1" x1="71.09" y1="124.9" x2="85.66" y2="139.47"/><line id="Línea_5" data-name="Línea 5" class="cls-1" x1="85.66" y1="112.57" x2="100.24" y2="127.14"/><line id="Línea_6" data-name="Línea 6" class="cls-1" x1="99.11" y1="99.11" x2="113.69" y2="113.69"/><line id="Línea_7" data-name="Línea 7" class="cls-1" x1="112.56" y1="86.79" x2="127.14" y2="101.36"/><line id="Línea_8" data-name="Línea 8" class="cls-1" x1="1.6" y1="159.64" x2="32.98" y2="193.27"/><path id="Trazado_31" data-name="Trazado 31" class="cls-2" d="M25.14,184.3l26.29-24.16L36.34,144l-25.7,25.38Z"/><line id="Línea_9" data-name="Línea 9" class="cls-1" x1="18.41" y1="176.46" x2="43.07" y2="152.92"/></g></svg>