<svg id="Capa_1" data-name="Capa 1" xmlns="http://www.w3.org/2000/svg" viewBox="0 0 137.36 136.26"><defs><style>.cls-1{fill:none;stroke:#81452c;stroke-linecap:round;stroke-linejoin:round;stroke-width:5px;}</style></defs><path class="cls-1" d="M77,70.36s11.24,20.27-8.25,22.11-9.59-34.9-5.44-47.22,10.39-23.89,13.32-25S64.53,57.34,77,70.36Z"/><path class="cls-1" d="M117.15,70.81c0,24.29-21.65,44-48.35,44s-48.36-19.7-48.36-44H46.76s5.73-.17,5.73,3.66-5.18,26.19,16.31,26.19S85.31,79.6,83.56,76.2s.88-4.74,3.8-4.74S117.15,70.81,117.15,70.81Z"/><path class="cls-1" d="M25.73,90.83s5,4.15,9.62,3,7.72-6.47,12.76-4.7,5.68,3.4,5.68,3.4"/><path class="cls-1" d="M113.28,88.07a8.88,8.88,0,0,0-5.54-3c-3.36-.3-1,8.94-10.07,6.43S92.84,85,85.32,86"/></svg>