<svg id="Capa_1" data-name="Capa 1" xmlns="http://www.w3.org/2000/svg" viewBox="0 0 137.36 136.26"><defs><style>.cls-1{fill:none;stroke:#d30194;stroke-linecap:round;stroke-linejoin:round;stroke-width:5px;}</style></defs><path class="cls-1" d="M49.61,76.85s-6,2.5-8.5,2.61S26.76,78.3,22.84,89.83c0,0,21.69-9.9,29.81,1.26s-6.85,10.28-2.92,23.09c0,0,3.68-11.67,15.85-13.83S75.73,88.43,75.73,88.43,81.31,102,91.84,104.79s13.44,8.5,15.09,13.32c0,0,6-11.16-10-23s2-11.67,2-11.67,18.52.13,27.27,6.47c0,0-7.22-9.36-28.47-13.88a87,87,0,0,1-9.94-2.85"/><path class="cls-1" d="M95.6,53.38A12.54,12.54,0,0,0,85.44,41.07,12.79,12.79,0,0,0,61,37.24a16.3,16.3,0,0,0-4.82-.73A16.1,16.1,0,0,0,40.69,57a12.53,12.53,0,0,0,8.53,19.34,12.8,12.8,0,0,0,20,1.83A12.53,12.53,0,0,0,88.1,67.36,12.79,12.79,0,0,0,87.87,65,12.52,12.52,0,0,0,95.6,53.38Z"/><path class="cls-1" d="M74.74,50.8a7.35,7.35,0,1,0-10.83-9.87,12.42,12.42,0,0,0-4.57-.86,12.59,12.59,0,0,0-9.18,21.2,3.6,3.6,0,1,0,6.16,3.61,12.57,12.57,0,0,0,13.1-4.68,5.4,5.4,0,0,0,5.32-9.4Z"/><circle class="cls-1" cx="86.1" cy="50.42" r="2.59"/><path class="cls-1" d="M79.1,66.1a3.57,3.57,0,0,0-3.57,3.44,2.54,2.54,0,1,0,2.52,3.56,3.66,3.66,0,0,0,1,.16,3.58,3.58,0,1,0,0-7.16Z"/></svg>