<svg id="Capa_1" data-name="Capa 1" xmlns="http://www.w3.org/2000/svg" viewBox="0 0 201.03 201.03"><defs><style>.cls-1,.cls-2{fill:none;stroke:#5c9e97;stroke-linejoin:round;stroke-width:2.48px;}.cls-2{stroke-linecap:round;}</style></defs><g id="Inf_basica" data-name="Inf basica"><g id="Grupo_19-2" data-name="Grupo 19-2"><path id="Trazado_46-2" data-name="Trazado 46-2" class="cls-1" d="M100.27,64.69C72,67.47,77.3,97.8,77.3,97.8c5.68,30.1,23,28.31,23,28.31s17.29,1.79,23-28.31C123.24,97.8,128.53,67.47,100.27,64.69Z"/><path id="Trazado_47-2" data-name="Trazado 47-2" class="cls-1" d="M119,123c-2.18,11.38-18.76,10.71-18.76,10.71S83.69,134.4,81.51,123c0,0-21.55,1.76-27,24.17h91.6C140.58,124.78,119,123,119,123Z"/></g><path id="Trazado_37-2" data-name="Trazado 37-2" class="cls-2" d="M185.21,46.35H88.62L63.39,23.79H15.53s-14.3-1.1-14.3,14.3V162.66a14.59,14.59,0,0,0,14.59,14.59H185.2a14.59,14.59,0,0,0,14.6-14.58h0V60.94a14.59,14.59,0,0,0-14.59-14.59Z"/></g></svg>