<svg id="Capa_1" data-name="Capa 1" xmlns="http://www.w3.org/2000/svg" viewBox="0 0 201.03 201.03"><defs><style>.cls-1,.cls-2,.cls-3{fill:none;stroke:#5c9e97;}.cls-1,.cls-2{stroke-linecap:round;stroke-width:1.82px;}.cls-1,.cls-3{stroke-miterlimit:10;}.cls-2{stroke-linejoin:round;}.cls-3{stroke-width:3.24px;}</style></defs><g id="Tratamiento"><line id="Línea_1" data-name="Línea 1" class="cls-1" x1="159.67" y1="77.87" x2="133.1" y2="102.39"/><path id="Trazado_28" data-name="Trazado 28" class="cls-2" d="M127,114.66l8.86-9.54L130.38,99l-10.22,8.85Z"/><path id="Trazado_29" data-name="Trazado 29" class="cls-2" d="M126.63,125.89l-17-18.39s7-3.25,13.87,3.65A13.25,13.25,0,0,1,126.63,125.89Z"/><line id="Línea_2" data-name="Línea 2" class="cls-1" x1="78.95" y1="180.39" x2="51.7" y2="151.1"/><path id="Trazado_30" data-name="Trazado 30" class="cls-2" d="M73.5,174.26l53.13-48.37-17-18.39L57,156.8Z"/><line id="Línea_3" data-name="Línea 3" class="cls-1" x1="73.5" y1="156.55" x2="82.35" y2="165.41"/><line id="Línea_4" data-name="Línea 4" class="cls-1" x1="81.67" y1="149.06" x2="90.53" y2="157.91"/><line id="Línea_5" data-name="Línea 5" class="cls-1" x1="90.53" y1="141.56" x2="99.38" y2="150.42"/><line id="Línea_6" data-name="Línea 6" class="cls-1" x1="98.7" y1="133.39" x2="107.56" y2="142.24"/><line id="Línea_7" data-name="Línea 7" class="cls-1" x1="106.88" y1="125.89" x2="115.73" y2="134.75"/><line id="Línea_8" data-name="Línea 8" class="cls-1" x1="39.43" y1="170.17" x2="58.51" y2="190.61"/><path id="Trazado_31" data-name="Trazado 31" class="cls-2" d="M53.74,185.16l16-14.69-9.17-9.83L44.93,176.06Z"/><line id="Línea_9" data-name="Línea 9" class="cls-1" x1="49.65" y1="180.39" x2="64.64" y2="166.09"/></g><path class="cls-3" d="M162.92,25h23.3A12.22,12.22,0,0,1,198.4,37.15v150a12.21,12.21,0,0,1-12.18,12.18H14.81A12.21,12.21,0,0,1,2.63,187.18v-150A12.22,12.22,0,0,1,14.81,25H36.18"/><polyline class="cls-3" points="60.23 24.96 100.22 24.96 138.88 24.96"/><rect class="cls-3" x="139.63" y="1.67" width="22.66" height="44.03" rx="11.33"/><rect class="cls-3" x="37.04" y="1.67" width="22.66" height="44.03" rx="11.33"/><line class="cls-3" x1="2.63" y1="65.36" x2="198.4" y2="65.36"/></svg>