<svg id="Capa_1" data-name="Capa 1" xmlns="http://www.w3.org/2000/svg" viewBox="0 0 201.03 201.03"><defs><style>.cls-1,.cls-2{fill:none;stroke:#fff;stroke-linejoin:round;stroke-width:2.52px;}.cls-2{stroke-linecap:round;}</style></defs><g id="Indicador_Inf_ginecologica" data-name="Indicador Inf ginecologica"><g id="Grupo_18" data-name="Grupo 18"><path id="Trazado_44" data-name="Trazado 44" class="cls-1" d="M116.43,127.37c-1.85,9.13-15.89,8.59-15.89,8.59s-14.05.54-15.9-8.59a26.61,26.61,0,0,0-22.9,19.41h77.59A26.61,26.61,0,0,0,116.43,127.37Z"/><path id="Trazado_45" data-name="Trazado 45" class="cls-1" d="M125.94,105c3.17-15.12,3.62-24.91-.9-28a11.25,11.25,0,0,0-9.51-1.33s-1.81-11.12-18.1-11.12S72.54,81,73.44,92.1s5.89,22.68-5.2,28.25a79.14,79.14,0,0,0,64.27-1.78S122.78,120.12,125.94,105Zm-10.43,7.12c-2.7,9.78-17.2,13.78-23.53,8s-11.31-22.23,2.7-24.9,15.84-11.57,15.84-11.57c6.83-.44,7.73,18.68,5,28.47Z"/></g><path id="Trazado_127" data-name="Trazado 127" class="cls-2" d="M184.47,46.84H88.75l-25-22.34H16.32A13,13,0,0,0,2.15,36.32a13.29,13.29,0,0,0,0,2.36V162.13a14.46,14.46,0,0,0,14.46,14.46H184.47a14.46,14.46,0,0,0,14.46-14.45h0V61.32a14.46,14.46,0,0,0-14.45-14.48Z"/></g></svg>