<svg id="Capa_1" data-name="Capa 1" xmlns="http://www.w3.org/2000/svg" viewBox="0 0 717.38 717.38"><defs><style>.muj-1{fill:none;stroke:#ffffff;stroke-linejoin:round;stroke-width:14.07px;}</style></defs><g id="Grupo_18" data-name="Grupo 18"><path id="Trazado_44" data-name="Trazado 44" class="muj-1" d="M492.69,542.43c-15.56,77.61-134,73.05-134,73.05s-118.43,4.57-134-73.05c0,0-153.91,12-193.12,164.93H685.8C646.6,554.42,492.69,542.43,492.69,542.43Z"/><path id="Trazado_45" data-name="Trazado 45" class="muj-1" d="M573,354c26.72-128.5,30.54-211.65-7.64-238.11s-80.17-11.33-80.17-11.33S469.92,10,332.48,10s-210,139.84-202.35,234.33,49.63,192.75-43.91,240c0,0,263.43,124.72,542.13-15.12C628.36,469.25,546.28,482.48,573,354Zm-87.81,60.47c-22.91,83.15-145.07,117.17-198.52,68s-95.44-189,22.91-211.66S443.2,172.56,443.2,172.56C500.46,168.78,508.1,331.29,485.19,414.44Z"/></g></svg>