<svg id="Capa_1" data-name="Capa 1" xmlns="http://www.w3.org/2000/svg" viewBox="0 0 201.03 201.03"><defs><style>.cls-1{fill:none;stroke:#5c9e97;stroke-linecap:round;stroke-linejoin:round;stroke-width:3.18px;}</style></defs><g id="Lugar_de_recidencia-2" data-name="Lugar de recidencia-2"><path id="Trazado_129" data-name="Trazado 129" class="cls-1" d="M62.41,11.29S8.56,30.12,2,93.17c0,0,11.82,3.06,12.7,12.26s-3.94,19.7,3.94,19.26,12.7,1.75,14.89,4.38,4.37,2.63,8.31,4.38,10.08,6.57,8.32,10.07-6.56,2.63-7.44,8.76,0,7.88,2.19,11.82,8.76,11,8.32,25c0,0,9.63,6.13,18.83,7.88,0,0,.87-9.2,21.45-28,0,0,13.57-10.07,6.57-14.45S76,143.52,71.17,137,49.28,133,46.65,130.82s-.87-3.5-3.94-5.69-3.94-2.63-9.19-3.5-7.89-2.63-7.89-3.94,1.32-8.76,4.82-13.58h8.32S41,108.93,44,108.49s.88-10.07,4.38-13.13S61.54,83.53,61.54,83.53a9.78,9.78,0,0,0,8.32-3.06C73.8,76.53,82.55,67.33,83,66.89s2.19-3.5-1.31-4.37S73.8,58.14,72.05,56s-13.58-.88-15.33,4.81S57.16,70.4,55,70.4,40.08,55.51,40.08,55.51a3.12,3.12,0,0,1,1.32-4.82c3.5-1.75,4.81-3.5,7-3.94s3.94-4.38,4.38-6.57a6.11,6.11,0,0,1,2.63-3.5s13.13,9.2,14.89,9.64,2.18.43,3.06,0,1.75-3.07,3.07-4.38,1.31-2.63.43-3.07-7.88-5.25-13.13-7S64.6,16.54,65,15.23,63.73,11.73,62.41,11.29Z"/><path id="Trazado_130" data-name="Trazado 130" class="cls-1" d="M73.36,7.79s18-6.57,42.47-2.19c0,0,2.19,9.63-.44,15.76s-1.75,10.51-9.19,14.89-10.51,11.38-12.26,14c0,0-5.26,2.63-8.32-5.69s.44-22.77-2.19-25.4-3.94-2.63-6.13-3.5S72.48,13.48,73.36,7.79Z"/><path id="Trazado_131" data-name="Trazado 131" class="cls-1" d="M160.93,26.61s21.89,8.76,33.71,47.29-3.94,67.43-3.94,67.43S174.06,151,174.06,168c0,0-12.26,15.76-31.52,23.65,0,0-4.38-4.38-2.19-17.52s9.19-6.57,5.25-15.32-4.38-23.65-4.38-23.65S132,138.27,128.09,137s-5.26-1.75-7.45-1.31-7.88-10.07-7.88-14,5.26-12.26,8.32-15.77,11.82-9.63,15.33-9.19,17.51,4.38,20.58,7c0,0,18.38,1.76,21.45,2.19s4.82,1.75,5.25,4.38,1.32,16.2,1.32,16.2l6.13-6.57,3.94-10.94s-9.19-7.44-10.51-11-1.31-3.5-3.94-3.5-8.32-2.63-10.07-3.5,7.88-1.32,13.14-2.63.44-7.44-2.63-12.26L170.56,77.4l-4.38,8.76-4.81-5.25-4.82.87-5.69,4.82.44-6.13h-8.76s-2.19,8.75-3.94,8.75-10.51,2.19-11.39.44,0-7.44.44-7.44,7.88-3.07,9.64-7S139,70.83,139,70.83l3.06-3.94s-9.63,2.19-12.26-.87,1.75-9.2,4.82-10.07,10.07,4.38,12.26,5.25,3.06,0,5.69,1.31,14.89,1.32,14.45-6.13a61.69,61.69,0,0,0-1.75-11.82c-.44-2.63-.88-6.13-2.63-5.25s-4.82,7.88-4.38,10.51-1.75,5.25-3.5,5.25S144.29,45,144.29,45s5.69-7.88,9.2-7.44S160.93,26.61,160.93,26.61Z"/></g></svg>