<svg id="Capa_sumary" enable-background="new 0 0 512 512" height="512" viewBox="0 0 512 512" width="512" xmlns="http://www.w3.org/2000/svg"><g><path d="m441.659 52.815h-17.871c-14.869 0-26.967 12.098-26.967 26.967v370.136c0 1.553.361 3.084 1.056 4.472l25.893 52.064c1.69 3.398 5.158 5.547 8.954 5.547 3.795 0 7.264-2.148 8.954-5.547l25.926-52.13c.673-1.371 1.022-2.878 1.022-4.405v-370.137c0-14.869-12.098-26.967-26.967-26.967zm-24.838 67.173h31.805v320.035h-31.805zm0-40.206c0-3.842 3.125-6.967 6.967-6.967h17.871c3.842 0 6.967 3.125 6.967 6.967v20.206h-31.805zm15.903 399.762-9.708-19.521h19.417z"/><path d="m347.882 18.516h-26.083v-8.516c0-5.522-4.478-10-10-10s-10 4.478-10 10v8.516h-49.165v-8.516c0-5.522-4.478-10-10-10s-10 4.478-10 10v8.516h-49.166v-8.516c0-5.522-4.478-10-10-10s-10 4.478-10 10v8.516h-49.165v-8.516c0-5.522-4.478-10-10-10s-10 4.478-10 10v8.516h-26.082c-13.7 0-24.847 11.146-24.847 24.847v443.791c0 13.7 11.146 24.847 24.847 24.847h279.661c13.7 0 24.846-11.146 24.846-24.847v-443.792c0-13.7-11.146-24.846-24.846-24.846zm-284.508 24.846c0-2.673 2.174-4.847 4.847-4.847h26.082v10.468c0 5.522 4.478 10 10 10s10-4.478 10-10v-10.467h49.165v10.468c0 5.522 4.478 10 10 10s10-4.478 10-10v-10.468h49.166v10.468c0 5.522 4.478 10 10 10s10-4.478 10-10v-10.468h49.165v10.468c0 5.522 4.478 10 10 10s10-4.478 10-10v-10.468h26.083c2.672 0 4.846 2.174 4.846 4.847v30.686h-289.354zm289.354 443.791c0 2.673-2.174 4.847-4.846 4.847h-279.661c-2.673 0-4.847-2.174-4.847-4.847v-393.105h289.354z"/><path d="m124.816 402.783h166.469c5.522 0 10-4.478 10-10v-210.383c0-5.522-4.478-10-10-10h-166.469c-5.522 0-10 4.478-10 10v210.383c0 5.523 4.478 10 10 10zm10-210.383h146.469v190.383h-146.469z"/><path d="m134.816 145.715h146.469c5.522 0 10-4.478 10-10s-4.478-10-10-10h-146.469c-5.522 0-10 4.478-10 10s4.478 10 10 10z"/><path d="m281.285 429.469h-146.469c-5.522 0-10 4.478-10 10s4.478 10 10 10h146.469c5.522 0 10-4.478 10-10s-4.477-10-10-10z"/></g></svg>