<svg id="Capa_1" data-name="Capa 1" xmlns="http://www.w3.org/2000/svg" viewBox="0 0 201.03 201.03"><defs><style>.cls-1{fill:none;stroke:#5c9e97;stroke-linecap:round;stroke-linejoin:round;stroke-width:3.06px;}</style></defs><g id="Ocupacion"><path id="Trazado_109" data-name="Trazado 109" class="cls-1" d="M84.74,141.11H13.31A11.81,11.81,0,0,1,1.6,129.21V55.07a11.81,11.81,0,0,1,11.71-11.9H187.72a11.81,11.81,0,0,1,11.71,11.9v74.14a11.81,11.81,0,0,1-11.71,11.9H116.16"/><path id="Rectángulo_21" data-name="Rectángulo 21" class="cls-1" d="M88.2,122h24.43a3,3,0,0,1,2.94,3v32.22a3,3,0,0,1-2.94,3H88.2a3,3,0,0,1-2.94-3V124.94A3,3,0,0,1,88.2,122Z"/><path id="Trazado_110" data-name="Trazado 110" class="cls-1" d="M65,43v-9.7A19.6,19.6,0,0,1,84.44,13.53h30.88a19.59,19.59,0,0,1,19.44,19.75h0v9.64"/><path id="Trazado_111" data-name="Trazado 111" class="cls-1" d="M193.09,139.78v33.47a14.14,14.14,0,0,1-14,14.25H20.69a14.14,14.14,0,0,1-14-14.25V139"/></g></svg>