<svg id="Capa_1" data-name="Capa 1" xmlns="http://www.w3.org/2000/svg" viewBox="0 0 717.38 717.38"><defs><style>.cls-1{fill:none;stroke:#199e97;stroke-linejoin:round;stroke-width:12.85px;}</style></defs><g id="Grupo_19" data-name="Grupo 19"><path id="Trazado_46" data-name="Trazado 46" class="cls-1" d="M358.69,43.19C141,64.46,181.7,295.85,181.7,295.85c43.78,229.7,177,216.08,177,216.08s133.22,13.62,177-216.08C535.68,295.85,576.42,64.46,358.69,43.19Z"/><path id="Trazado_47" data-name="Trazado 47" class="cls-1" d="M502.65,489.81c-16.71,86.77-143.95,81.68-143.95,81.68s-127.23,5.1-143.95-81.68c0,0-165.36,13.4-207.47,184.39H710.11C668,503.21,502.65,489.81,502.65,489.81Z"/></g><path class="cls-1" d="M443.33,382.21c-13.88-16.44-61.24-54.64-84.2-21.27C335.92,327.57,288,365.77,274,382.21s-28.53,21.28-28.53,21.28c90.43,58.51,113.64-13.06,113.64-13.06s23,71.57,112.42,13.06C471.55,403.49,457.2,398.66,443.33,382.21Z"/></svg>