<svg id="Capa_1" data-name="Capa 1" xmlns="http://www.w3.org/2000/svg" viewBox="0 0 334.9 392.37"><defs><style>.cls-1{fill:none;stroke:#5c9e97;stroke-linecap:round;stroke-linejoin:round;stroke-width:5px;}</style></defs><g id="Grupo_28" data-name="Grupo 28"><path id="Rectángulo_19" data-name="Rectángulo 19" class="cls-1" d="M55.08,342.8h237a7,7,0,0,1,7,7.05h0a7,7,0,0,1-7,7h-237a7.05,7.05,0,0,1-7-7h0A7.05,7.05,0,0,1,55.08,342.8Z"/><path id="Trazado_62" data-name="Trazado 62" class="cls-1" d="M116.27,158.42V115.15a9.42,9.42,0,0,1,9.39-9.39h0a9.42,9.42,0,0,1,9.39,9.39v40.5"/><path id="Trazado_63" data-name="Trazado 63" class="cls-1" d="M135.05,61.64s-16.9.94-21.59,21.12,15,17.84,17.36,16.9,11.27-5.63,5.64-18.78S135.05,61.64,135.05,61.64Z"/><path id="Trazado_64" data-name="Trazado 64" class="cls-1" d="M166.34,153.94V109.05a9.42,9.42,0,0,1,9.39-9.39h0a9.42,9.42,0,0,1,9.39,9.39v45"/><path id="Trazado_65" data-name="Trazado 65" class="cls-1" d="M182,55.53s-16.9.94-21.59,21.13,15,17.83,17.36,16.9S189,87.93,183.4,74.78,182,55.53,182,55.53Z"/><path id="Trazado_66" data-name="Trazado 66" class="cls-1" d="M210.16,155.78V115.15a9.41,9.41,0,0,1,9.38-9.39h0a9.42,9.42,0,0,1,9.39,9.39v43.17"/><path id="Trazado_67" data-name="Trazado 67" class="cls-1" d="M228.93,61.64s-16.9.94-21.6,21.12,15,17.84,17.37,16.9S236,94,230.33,80.88,228.93,61.64,228.93,61.64Z"/><path id="Trazado_68" data-name="Trazado 68" class="cls-1" d="M246.06,281.55c-24.41,1.87-25.35-38.49-48.35-42.25s-18.3,38.49-46.47,40.37-24.87-24.88-57.73-24.88c-16.56,0-28.35,9.77-36,19.47v61.27l232.12.23V242.07C280.42,256.6,262.9,280.25,246.06,281.55Z"/><path id="Trazado_69" data-name="Trazado 69" class="cls-1" d="M93,234.61c18.77-2.82,36.14,23.47,54.92,27.22s25.81-40.83,46.47-42.71,33.8,34.73,47.87,36.14c11.65,1.17,36.47-31.07,47.36-45.7V181.8s-25.59-27.92-119.47-27.92S57.54,187.2,57.54,187.2v70.67C65.68,249.61,80.32,236.52,93,234.61Z"/></g></svg>