<svg id="Capa_1" data-name="Capa 1" xmlns="http://www.w3.org/2000/svg" viewBox="0 0 125.03 125.03"><defs><style>.cls-1{fill:none;stroke:#199e97;stroke-miterlimit:10;}</style></defs><path class="cls-1" d="M115.41,41.81a22.88,22.88,0,1,0,0,32.34A22.79,22.79,0,0,0,115.41,41.81ZM83,58a16.2,16.2,0,0,1,25.07-13.57L85.65,66.85A16.09,16.09,0,0,1,83,58ZM110.7,69.47a16.19,16.19,0,0,1-20.32,2.09l22.43-22.43A16.28,16.28,0,0,1,110.7,69.47ZM80.86,99.23a22.91,22.91,0,1,0-6.72,16.17A22.73,22.73,0,0,0,80.86,99.23Zm-39.08,0A16.22,16.22,0,0,1,58,83a15.94,15.94,0,0,1,8.85,2.65L44.41,108.1A16.1,16.1,0,0,1,41.78,99.23Zm7.34,13.58L71.55,90.38a16.2,16.2,0,0,1-22.43,22.43ZM68.64,41.2A22.87,22.87,0,0,0,36.28,8.86L8.83,36.31A22.87,22.87,0,1,0,41.17,68.67ZM41,13.55a16.22,16.22,0,0,1,22.92,0,16.22,16.22,0,0,1,0,22.92L52.54,47.85,29.62,24.92ZM25,68.69A16.21,16.21,0,0,1,13.55,41L24.92,29.65,47.85,52.57,36.48,63.94A16.2,16.2,0,0,1,25,68.69Z"/></svg>