<svg id="Capa_1" data-name="Capa 1" xmlns="http://www.w3.org/2000/svg" viewBox="0 0 201.03 201.03"><defs><style>.cls-1,.cls-2{fill:none;stroke:#5c9e97;stroke-linecap:round;stroke-width:3.32px;}.cls-1{stroke-linejoin:round;}.cls-2{stroke-miterlimit:10;}</style></defs><g id="Peso"><rect id="Rectángulo_22" data-name="Rectángulo 22" class="cls-1" x="14.49" y="1.73" width="180.37" height="197.61" rx="39.21"/><path id="Trazado_116" data-name="Trazado 116" class="cls-1" d="M140.83,62.42H69.66s0-37.52,34.76-37.52S140.83,62.42,140.83,62.42Z"/><path id="Trazado_117" data-name="Trazado 117" class="cls-1" d="M69.75,179.64s13.19-2.2,5.13-22.72a115.16,115.16,0,0,1-8.06-43.25c0-5.86-.74-43.24-27.12-43.24,0,0-16.12.73-14.66,29.32s24.19,37.38,27.12,59.37S69.75,179.64,69.75,179.64Z"/><path id="Trazado_118" data-name="Trazado 118" class="cls-1" d="M140.43,179.64s-13.2-2.2-5.13-22.72a115.35,115.35,0,0,0,8.06-43.25c0-5.86.73-43.24,27.12-43.24,0,0,16.12.73,14.65,29.32S161,137.13,158,159.12,140.43,179.64,140.43,179.64Z"/><line id="Línea_14" data-name="Línea 14" class="cls-2" x1="106" y1="37.54" x2="106" y2="62.01"/></g></svg>