<svg id="Capa_1" data-name="Capa 1" xmlns="http://www.w3.org/2000/svg" viewBox="0 0 717.38 717.38"><defs><style>.pro-1{fill:none;stroke:#ffffff;stroke-linecap:round;stroke-linejoin:round;stroke-width:9.93px;}</style></defs><path class="pro-1" d="M409.8,213.3c1.94-24.65-7.93-54.22-34.38-96.25L272.68,10.37S187.42-2.75,170.37,100c0,0-2.62,32.8-38.47,38s-20.12,35.42-20.12,35.42l97.94,97.93s58.3,46.14,108.91,42"/><path class="pro-1" d="M358.81,190.72a67.88,67.88,0,1,0,67.87,67.87A67.88,67.88,0,0,0,358.81,190.72Zm1.93,92.33a24.46,24.46,0,1,1,24.46-24.46A24.46,24.46,0,0,1,360.74,283.05Z"/><circle class="pro-1" cx="360.74" cy="258.59" r="24.45"/><path class="pro-1" d="M358.81,432.49a67.88,67.88,0,1,0,67.87,67.87A67.88,67.88,0,0,0,358.81,432.49Zm1.93,92.33a24.46,24.46,0,1,1,24.46-24.46A24.46,24.46,0,0,1,360.74,524.82Z"/><circle class="pro-1" cx="360.74" cy="500.36" r="24.45"/><line class="pro-1" x1="336.29" y1="322.65" x2="336.29" y2="436.31"/><line class="pro-1" x1="382.09" y1="436.58" x2="382.09" y2="322.37"/><path class="pro-1" d="M290.93,497.64V685.86s-3.28,21.71,51.15,21.71H587s22-1,22-22v-61s2.29-54-54-54H472l-45.33-72.94"/></svg>