<svg id="Capa_1" data-name="Capa 1" xmlns="http://www.w3.org/2000/svg" viewBox="0 0 201.03 201.03"><defs><style>.cls-1{fill:none;stroke:#303280;stroke-linecap:round;stroke-linejoin:round;stroke-width:3.45px;}</style></defs><g id="Pulsera"><path id="Trazado_132" data-name="Trazado 132" class="cls-1" d="M192.72,92.3H158.67c-11,0-15.41-3.7-15.68-3.94a10.05,10.05,0,0,0-9.13-5.81H67.19A10.09,10.09,0,0,0,58,88.45c-.78.64-5.36,4-15.65,4H8.3s-6.4.18-6.4,8.21v.1c0,8,6.41,8.21,6.41,8.21H42.36c11.39,0,15.69,4,15.69,4v-.24a10.08,10.08,0,0,0,9.14,5.84h66.68a10.06,10.06,0,0,0,9-5.59s4.41-4.06,15.78-4.06h34.05s6.41-.18,6.41-8.21v-.1C199.13,92.48,192.72,92.3,192.72,92.3Zm-57.5,12.19a7.06,7.06,0,0,1-7.05,7.06H72.88a7.05,7.05,0,0,1-7-7v-8a7.06,7.06,0,0,1,7-7.06h55.28a7.06,7.06,0,0,1,7.06,7.06Z"/></g></svg>