<svg id="Capa_1" data-name="Capa 1" xmlns="http://www.w3.org/2000/svg" viewBox="0 0 201.03 201.03"><defs><style>.cls-1,.cls-2{fill:none;stroke:#5c9e97;stroke-linecap:round;stroke-width:3.3px;}.cls-1{stroke-linejoin:round;}.cls-2{stroke-miterlimit:10;}</style></defs><g id="Religion"><path id="Trazado_119" data-name="Trazado 119" class="cls-1" d="M177.34,176.42a6.9,6.9,0,0,1-.41-9,12.4,12.4,0,0,0,3.7-8.65c0-5.35-1.23-7.41-1.23-7.41L163.34,98.62s-2.06-8.23-11.94-8.23-97.76.21-97.76.21a14,14,0,0,0-12.77,9.88c-3.29,9.88-18.31,61.13-18.31,61.13s-6.18,14,2.05,25.11,22.23,12.35,22.23,12.35H168.28s9.88.41,12.35-11.53C180.63,187.54,181.45,181,177.34,176.42ZM45.61,185.07S34.08,183,34.08,171.48,45.61,157.9,45.61,157.9H167.05s-4.94,3.71-4.94,14,5.35,13.17,5.35,13.17Z"/><g id="Grupo_53" data-name="Grupo 53"><g id="Grupo_52" data-name="Grupo 52"><line id="Línea_15" data-name="Línea 15" class="cls-2" x1="100.36" y1="10.61" x2="100.36" y2="70.71"/><line id="Línea_16" data-name="Línea 16" class="cls-2" x1="83.07" y1="1.96" x2="65.37" y2="60.83"/></g><line id="Línea_17" data-name="Línea 17" class="cls-2" x1="118.06" y1="1.96" x2="135.76" y2="60.83"/></g></g></svg>