<svg id="Capa_1" data-name="Capa 1" xmlns="http://www.w3.org/2000/svg" viewBox="0 0 201.03 201.03"><defs><style>.cls-1{fill:none;stroke:#5c9e97;stroke-linecap:round;stroke-linejoin:round;stroke-width:3.19px;}</style></defs><g id="Seguro_medico" data-name="Seguro medico"><path id="Trazado_17" data-name="Trazado 17" class="cls-1" d="M134.54,19.52h-6.69s-9-1.22-12.7-7.72S108.64,1.64,104.58,1.64H96.15c-4.07,0-6.91,3.65-10.57,10.16s-12.71,7.72-12.71,7.72H66.3a2.68,2.68,0,0,0-2.67,2.67V35.55a2.68,2.68,0,0,0,2.67,2.67h68.24a2.68,2.68,0,0,0,2.67-2.67V22.19A2.69,2.69,0,0,0,134.54,19.52Z"/><g id="Grupo_8" data-name="Grupo 8"><path id="Trazado_18" data-name="Trazado 18" class="cls-1" d="M149.19,22.16h-5.55a2.65,2.65,0,0,1,.07.48V35h4.45a18.47,18.47,0,0,1,18.41,18.41v114.8a18.46,18.46,0,0,1-18.41,18.41H52.88a18.47,18.47,0,0,1-18.42-18.41V53.38A18.47,18.47,0,0,1,52.88,35h4.24V22.64a2.65,2.65,0,0,1,.07-.48H51.85A29.66,29.66,0,0,0,22.27,51.74V169.82A29.67,29.67,0,0,0,51.85,199.4h97.34a29.68,29.68,0,0,0,29.58-29.58V51.74A29.68,29.68,0,0,0,149.19,22.16Z"/></g><path id="Trazado_19" data-name="Trazado 19" class="cls-1" d="M100.82,65.46,59.36,79.28C59.36,126,100.82,152,100.82,152s41.47-26,41.47-72.76Z"/><path id="Trazado_20" data-name="Trazado 20" class="cls-1" d="M119.52,102.65H106.11V89.24H95.54v13.41H82.12v10.57H95.54v13.41h10.57V113.22h13.41Z"/></g></svg>