<svg id="Capa_1" data-name="Capa 1" xmlns="http://www.w3.org/2000/svg" viewBox="0 0 201.03 201.03"><defs><style>.cls-1{fill:none;stroke:#5c9e97;stroke-linecap:round;stroke-linejoin:round;stroke-width:2.35px;}</style></defs><polygon class="cls-1" points="130.67 128.09 112.17 128.09 112.17 109.59 88.86 109.59 88.86 128.09 70.36 128.09 70.36 151.4 88.86 151.4 88.86 169.9 112.17 169.9 112.17 151.4 130.67 151.4 130.67 128.09"/><path class="cls-1" d="M169.93,87.29a71,71,0,1,0-138.83,0,23.61,23.61,0,0,0-10.9,19.84v69.05a23.64,23.64,0,0,0,23.57,23.56H157.26a23.64,23.64,0,0,0,23.57-23.56V107.13A23.61,23.61,0,0,0,169.93,87.29Zm-27.17-3.73H57.18a44.27,44.27,0,1,1,85.58,0Z"/></svg>