<svg id="Capa_1" data-name="Capa 1" xmlns="http://www.w3.org/2000/svg" viewBox="0 0 717.38 717.38"><defs><style>.cls-1{fill:none;stroke:#199e97;stroke-linecap:round;stroke-linejoin:round;stroke-width:10.02px;}</style></defs><path class="cls-1" d="M457.59,516.23A181.57,181.57,0,1,1,161.94,341.32l-.67-59.77A230.51,230.51,0,0,0,49.14,479.45c0,127.37,103.26,230.63,230.63,230.63,96.83,0,179.72-59.67,213.91-144.25Z"/><circle class="cls-1" cx="241.29" cy="65.14" r="57.82"/><path class="cls-1" d="M199.13,172.86V393.48s-2.07,35.19,35.19,35.19h199L565.84,607h79.85s22.55,1.08,22.55-29.77c0,0,1.29-26.72-19-26.72H608.61L485,377s-23-32.78-42.85-32.78H300.4V285.06H429S450,284.72,450,264s-19.7-19.7-19.7-19.7H299.11V172.86s3.44-32.18-53-32.18C246.11,140.68,199.13,140.34,199.13,172.86Z"/></svg>