<svg id="Capa_1" data-name="Capa 1" xmlns="http://www.w3.org/2000/svg" viewBox="0 0 717.38 717.38"><defs><style>.cls-1{fill:none;stroke:#199e97;stroke-linecap:round;stroke-linejoin:round;stroke-width:9.51px;}</style></defs><path class="cls-1" d="M438.74,623.19S535.91,598,553.58,510s14.3-249,2.52-306.64-35.75-86.22-77.4-98.84c0,0-25.44-1.9-25.44-24.61V24.53S451.37,9.81,438.53,9.81l-159.6-.07c-14.41,0-14.79,14.79-14.79,14.79V80c0,22.71-25.45,24.61-25.45,24.61-41.64,12.62-65.62,41.22-77.4,98.84S146.15,422.13,163.82,510,278.65,623.19,278.65,623.19c12.34,13.72,55,29.16,55,29.16v55.31h50.17V652.35S427,632.73,438.74,623.19ZM409.1,74.71H308.3a20.26,20.26,0,1,1,0-40.51H409.1a20.26,20.26,0,0,1,0,40.51Z"/><rect class="cls-1" x="228.7" y="228.7" width="260" height="260" rx="43.33"/><rect class="cls-1" x="371.45" y="390.85" width="90.43" height="29.31" rx="14.65"/><rect class="cls-1" x="272.22" y="356.28" width="174.42" height="29.31" rx="14.65" transform="translate(-157.01 362.8) rotate(-45)"/><path class="cls-1" d="M331.29,311.06H315.38V295.15a14.65,14.65,0,0,0-29.3,0v15.91H270.17a14.66,14.66,0,1,0,0,29.31h15.91v15.91a14.65,14.65,0,0,0,29.3,0V340.37h15.91a14.66,14.66,0,1,0,0-29.31Z"/></svg>