<svg id="Capa_1" data-name="Capa 1" xmlns="http://www.w3.org/2000/svg" viewBox="0 0 137.36 136.26"><defs><style>.cls-1{fill:none;stroke:#86a019;stroke-linecap:round;stroke-linejoin:round;stroke-width:5px;}</style></defs><path class="cls-1" d="M56.85,47.11s8.69-25.66-20.36-25.66S10.26,58.94,14.73,69.36,29.05,86.58,35.91,86.82s17.13-4.71,17.46-13-4.55-10.75-4.55-10.75"/><path class="cls-1" d="M45.68,51.49a26.06,26.06,0,0,1,18,13.41c6.54,11.91-6.78,29.12-3.06,58.66"/><path class="cls-1" d="M38.89,37.53s1.93,6.13,4,8.06,3.37,4.14,2.76,6.45S47,59.6,30.84,67.21"/><path class="cls-1" d="M28.41,58.5s7.6,1.6,9.24,5"/><path class="cls-1" d="M48.38,36.6s-2.54,2.31-2.7,4.69S42,44.51,42,44.51"/><path class="cls-1" d="M83.43,47.11s-8.68-25.66,20.36-25.66S130,58.94,125.55,69.36s-14.31,17.22-21.18,17.46-17.13-4.71-17.46-13,4.55-10.75,4.55-10.75"/><path class="cls-1" d="M94.61,51.49a26.08,26.08,0,0,0-18,13.41C70.11,76.81,83.43,94,79.71,123.56"/><path class="cls-1" d="M101.39,37.53s-1.93,6.13-4,8.06S94,49.73,94.61,52s-1.33,7.56,14.83,15.17"/><path class="cls-1" d="M111.87,58.5s-7.6,1.6-9.23,5"/><path class="cls-1" d="M91.9,36.6s2.54,2.31,2.71,4.69,3.65,3.22,3.65,3.22"/></svg>