<svg id="Capa_1" data-name="Capa 1" xmlns="http://www.w3.org/2000/svg" viewBox="0 0 421.43 387.78"><defs><style>.cls-1,.cls-2,.cls-3{fill:none;stroke:#5c9e97;}.cls-1,.cls-2{stroke-linecap:round;stroke-width:2.81px;}.cls-1,.cls-3{stroke-miterlimit:10;}.cls-2{stroke-linejoin:round;}.cls-3{stroke-width:5px;}</style></defs><g id="Tratamiento"><line id="Línea_1" data-name="Línea 1" class="cls-1" x1="286.13" y1="156.12" x2="245.08" y2="194.02"/><path id="Trazado_28" data-name="Trazado 28" class="cls-2" d="M235.6,213l13.69-14.74-8.42-9.47-15.79,13.68Z"/><path id="Trazado_29" data-name="Trazado 29" class="cls-2" d="M235.08,230.34l-26.32-28.43s10.76-5,21.43,5.65A20.48,20.48,0,0,1,235.08,230.34Z"/><line id="Línea_2" data-name="Línea 2" class="cls-1" x1="161.39" y1="314.56" x2="119.28" y2="269.29"/><path id="Trazado_30" data-name="Trazado 30" class="cls-2" d="M153,305.08l82.12-74.74-26.32-28.43-81.29,76.18Z"/><line id="Línea_3" data-name="Línea 3" class="cls-1" x1="152.96" y1="277.71" x2="166.65" y2="291.4"/><line id="Línea_4" data-name="Línea 4" class="cls-1" x1="165.6" y1="266.13" x2="179.28" y2="279.82"/><line id="Línea_5" data-name="Línea 5" class="cls-1" x1="179.28" y1="254.55" x2="192.97" y2="268.24"/><line id="Línea_6" data-name="Línea 6" class="cls-1" x1="191.91" y1="241.92" x2="205.6" y2="255.6"/><line id="Línea_7" data-name="Línea 7" class="cls-1" x1="204.55" y1="230.34" x2="218.23" y2="244.02"/><line id="Línea_8" data-name="Línea 8" class="cls-1" x1="100.33" y1="298.76" x2="129.8" y2="330.35"/><path id="Trazado_31" data-name="Trazado 31" class="cls-2" d="M122.43,321.92l24.7-22.69L133,284l-24.14,23.83Z"/><line id="Línea_9" data-name="Línea 9" class="cls-1" x1="116.12" y1="314.56" x2="139.28" y2="292.45"/></g><path class="cls-3" d="M291.16,74.37h36A18.88,18.88,0,0,1,346,93.19V325.05a18.88,18.88,0,0,1-18.82,18.82H62.28a18.88,18.88,0,0,1-18.83-18.82V93.19A18.88,18.88,0,0,1,62.28,74.37h33"/><polyline class="cls-3" points="132.46 74.37 194.26 74.37 254 74.37"/><rect class="cls-3" x="255.16" y="38.37" width="35.01" height="68.04" rx="17.5"/><rect class="cls-3" x="96.63" y="38.37" width="35.01" height="68.04" rx="17.5"/><line class="cls-3" x1="43.45" y1="136.79" x2="345.98" y2="136.79"/></svg>