<svg id="Capa_1" data-name="Capa 1" xmlns="http://www.w3.org/2000/svg" viewBox="0 0 717.38 717.38"><defs><style>.cls-1{fill:none;stroke:#199e97;stroke-linecap:round;stroke-linejoin:round;stroke-width:9.61px;}</style></defs><path class="cls-1" d="M658.65,322.73A37.42,37.42,0,0,0,636.47,330l-.62.23s-31.73,11-38.42-15.77v.07a241.33,241.33,0,0,0-41-96.56c-8.3-21.12,18.29-33.93,18.29-33.93l.71-.18a37.59,37.59,0,1,0-42.77-43.08l-.29.6s-14.75,30-38.27,15.93a241.52,241.52,0,0,0-89.89-37h.19c-26.73-6.68-15.77-38.41-15.77-38.41l.37-.62a37.59,37.59,0,1,0-60.7,0l.22.62s11,31.73-15.77,38.41h.34a241.46,241.46,0,0,0-92.65,38.89c-23,12.52-37.16-16.65-37.16-16.65l-.18-.7a37.59,37.59,0,1,0-42.92,42.92l.6.29s30.18,14.68,16,38.31l1-1a241.3,241.3,0,0,0-38,92.54C112.91,341,81.55,330.2,81.55,330.2l-.63-.38a37.6,37.6,0,1,0,0,60.71l.63-.23s31.72-11,38.41,15.77v-2.63a241.31,241.31,0,0,0,37.42,91.22c13.82,23.57-16.25,38.07-16.25,38.07l-.71.17A37.59,37.59,0,1,0,183.19,576l.28-.6s14.79-30.13,38.37-15.87l-.29-.29a241.55,241.55,0,0,0,93.11,38.42c24.3,7.69,13.88,37.86,13.88,37.86l-.37.63a37.58,37.58,0,1,0,60.71,0l-.23-.62s-10.34-30,13.6-37.78a241.54,241.54,0,0,0,92.28-37.63c23.26-13.27,37.68,16.35,37.68,16.35l.18.71a37.59,37.59,0,1,0,42.93-42.93l-.6-.28S547.32,520.6,557,498.89a241.47,241.47,0,0,0,40.4-95.74v2.92c6.69-26.73,38.42-15.77,38.42-15.77l.62.38a37.59,37.59,0,1,0,22.18-67.95Z"/></svg>